 0
SECTION
 2
HEADER
 9
$ACADVER
 1
AC1015
 9
$HANDSEED
 5
E97
 9
$INSUNITS
 70
4
 9
$PLINEGEN
 70
1
 9
$LTSCALE
 40
449.134413
 9
$PSLTSCALE
 70
0
 0
ENDSEC
 0
SECTION
 2
TABLES
 0
TABLE
 2
VPORT
 5
AB
 100
AcDbSymbolTable
 70
2
 0
VPORT
 5
AC
 330
AB
 100
AcDbSymbolTableRecord
 100
AcDbViewportTableRecord
 2
*Active
 70
0
 12
2245.672067
 22
1676.076926
 40
3352.153853
 41
1.339838
 0
ENDTAB
 0
TABLE
 2
LTYPE
 5
AD
 100
AcDbSymbolTable
 70
8
 0
LTYPE
 5
AE
 330
AD
 100
AcDbSymbolTableRecord
 100
AcDbLinetypeTableRecord
 2
BYBLOCK
 70
0
 3

 0
LTYPE
 5
AF
 330
AD
 100
AcDbSymbolTableRecord
 100
AcDbLinetypeTableRecord
 2
BYLAYER
 70
0
 3

 0
LTYPE
 5
B0
 330
AD
 100
AcDbSymbolTableRecord
 100
AcDbLinetypeTableRecord
 2
CONTINUOUS
 70
0
 3
Solid line
 0
LTYPE
 5
B1
 330
AD
 100
AcDbSymbolTableRecord
 100
AcDbLinetypeTableRecord
 2
DASHED
 70
0
 3
_ _ _ _ _ _ _ _ _ _ _ _ _ _ _ _ _ _ _ _ _ _ _ _
 72
65
 73
2
 40
0.25
 49
0.15
 74
0
 49
-0.10
 74
0
 0
LTYPE
 5
B2
 330
AD
 100
AcDbSymbolTableRecord
 100
AcDbLinetypeTableRecord
 2
DOTTED
 70
0
 3
. . . . . . . . . . . . . . . . . . . . . . . .
 72
65
 73
2
 40
0.1
 49
0.05
 74
0
 49
-0.05
 74
0
 0
LTYPE
 5
B3
 330
AD
 100
AcDbSymbolTableRecord
 100
AcDbLinetypeTableRecord
 2
DASHDOT
 70
0
 3
_ . _ . _ . _ . _ . _ . _ . _ . _ . _ . _ . _ .
 72
65
 73
4
 40
0.35
 49
0.15
 74
0
 49
-0.075
 74
0
 49
0.05
 74
0
 49
-0.075
 74
0
 0
LTYPE
 5
B4
 330
AD
 100
AcDbSymbolTableRecord
 100
AcDbLinetypeTableRecord
 2
DASHDOTDOT
 70
0
 3
_ . . _ . . _ . . _ . . _ . . _ . . _ . . _ . .
 72
65
 73
6
 40
0.45
 49
0.125
 74
0
 49
-0.075
 74
0
 49
0.05
 74
0
 49
-0.075
 74
0
 49
0.05
 74
0
 49
-0.075
 74
0
 0
ENDTAB
 0
TABLE
 2
LAYER
 5
B5
 100
AcDbSymbolTable
 70
2
 0
LAYER
 5
B6
 330
B5
 100
AcDbSymbolTableRecord
 100
AcDbLayerTableRecord
 2
0
 70
0
 62
7
 6
CONTINUOUS
 370
-3
 390
BDD
 0
ENDTAB
 0
TABLE
 2
STYLE
 5
B7
 100
AcDbSymbolTable
 70
2
 0
STYLE
 5
B8
 330
B7
 100
AcDbSymbolTableRecord
 100
AcDbTextStyleTableRecord
 2
STANDARD
 70
0
 40
0.0
 41
1.0
 71
0
 42
0.2
 3
txt
 4

 0
STYLE
 5
C7
 330
B7
 100
AcDbSymbolTableRecord
 100
AcDbTextStyleTableRecord
 2
Verdana
 70
0
 3
verdana.ttf
 4

 1001
ACAD
 1000
Verdana
1071
0
 0
ENDTAB
 0
TABLE
 2
VIEW
 5
B9
 100
AcDbSymbolTable
 70
1
 0
ENDTAB
 0
TABLE
 2
UCS
 5
BA
 100
AcDbSymbolTable
 70
1
 0
ENDTAB
 0
TABLE
 2
APPID
 5
BB
 100
AcDbSymbolTable
 70
2
 0
APPID
 5
BC
 330
BB
 100
AcDbSymbolTableRecord
 100
AcDbRegAppTableRecord
 2
ACAD
 70
0
 0
ENDTAB
 0
TABLE
 2
DIMSTYLE
 5
BD
 100
AcDbSymbolTable
 70
1
 100
AcDbDimStyleTable
 71
0
 0
ENDTAB
 0
TABLE
 2
BLOCK_RECORD
 5
BE
 100
AcDbSymbolTable
 70
3
 0
BLOCK_RECORD
 5
BF
 330
BE
 100
AcDbSymbolTableRecord
 100
AcDbBlockTableRecord
 2
*MODEL_SPACE
 340
C0
 0
BLOCK_RECORD
 5
C1
 330
BE
 100
AcDbSymbolTableRecord
 100
AcDbBlockTableRecord
 2
*PAPER_SPACE
 340
C2
 0
ENDTAB
 0
ENDSEC
 0
SECTION
 2
BLOCKS
 0
BLOCK
 5
C3
 330
BF
 100
AcDbEntity
 8
0
 100
AcDbBlockBegin
 2
*MODEL_SPACE
 70
0
 3
*MODEL_SPACE
 1

 0
ENDBLK
 5
C4
 330
BF
 100
AcDbEntity
 8
0
 100
AcDbBlockEnd
 0
BLOCK
 5
C5
 330
C1
 100
AcDbEntity
 67
1
 8
0
 100
AcDbBlockBegin
 2
*PAPER_SPACE
 70
0
 3
*PAPER_SPACE
 1

 0
ENDBLK
 5
C6
 330
C1
 100
AcDbEntity
 67
1
 8
0
 100
AcDbBlockEnd
 0
ENDSEC
 0
SECTION
 2
ENTITIES
 0
LWPOLYLINE
 5
AAA
 330
BF
 100
AcDbEntity
 100
AcDbPolyline
 90
6
 70
0
 10
1114.461541
 20
2632.447966
 10
1114.461806
 20
2832.251853
 10
1062.661806
 20
2832.251922
 10
1684.261806
 20
2832.251097
 10
1632.461806
 20
2832.251166
 10
1632.461541
 20
2632.447279
 0
LWPOLYLINE
 5
AAB
 330
BF
 100
AcDbEntity
 100
AcDbPolyline
 90
6
 70
1
 10
1373.461966
 20
2952.852652
 10
1373.462103
 20
3056.225059
 10
1356.233369
 20
3056.225082
 10
1373.462149
 20
3090.682528
 10
1390.690838
 20
3056.225036
 10
1373.462103
 20
3056.225059
 0
TEXT
 5
AAC
 330
BF
 100
AcDbEntity
 100
AcDbText
 10
1219.823576
 20
2883.937713
 11
1527.100218
 21
2883.937713
 40
34.457469
 1
518.0000 mm
 72
5
 7
Verdana
 100
AcDbText
 0
LWPOLYLINE
 5
AAD
 330
BF
 100
AcDbEntity
 100
AcDbPolyline
 90
6
 70
0
 10
1551.455974
 20
543.137681
 10
1551.455246
 20
360.275758
 10
1587.055246
 20
360.275616
 10
1159.855246
 20
360.277316
 10
1195.455246
 20
360.277175
 10
1195.455974
 20
543.139098
 0
LWPOLYLINE
 5
AAE
 330
BF
 100
AcDbEntity
 100
AcDbPolyline
 90
6
 70
1
 10
1373.454218
 20
101.845448
 10
1373.454629
 20
205.217855
 10
1356.225895
 20
205.217924
 10
1373.454766
 20
239.675324
 10
1390.683364
 20
205.217786
 10
1373.454629
 20
205.217855
 0
TEXT
 5
AAF
 330
BF
 100
AcDbEntity
 100
AcDbText
 10
1219.816651
 20
274.132793
 11
1527.093293
 21
274.132793
 40
34.457469
 1
356.0000 mm
 72
5
 7
Verdana
 100
AcDbText
 0
ELLIPSE
 5
AB0
 330
BF
 100
AcDbEntity
 100
AcDbEllipse
 10
1373.460166
 20
1596.263988
 11
0.000000
 21
1123.625020
 40
1.000000
 0
ELLIPSE
 5
AB1
 330
BF
 100
AcDbEntity
 100
AcDbEllipse
 10
1373.460166
 20
1596.263988
 11
0.000000
 21
1012.500000
 40
1.000000
 0
LWPOLYLINE
 5
AB2
 330
BF
 100
AcDbEntity
 6
DOTTED
 100
AcDbPolyline
 90
2
 70
0
 10
193.653895
 20
1596.263988
 10
2553.266437
 20
1596.263988
 0
LWPOLYLINE
 5
AB3
 330
BF
 100
AcDbEntity
 6
DOTTED
 100
AcDbPolyline
 90
2
 70
0
 10
1373.460166
 20
416.457717
 10
1373.460166
 20
2776.070259
 0
CIRCLE
 5
AB4
 330
BF
 100
AcDbEntity
 6
DOTTED
 100
AcDbCircle
 10
1373.460166
 20
1596.263988
 40
855.323554
 0
CIRCLE
 5
AB5
 330
BF
 100
AcDbEntity
 100
AcDbCircle
 10
1725.412886
 20
1596.263988
 40
19.050000
 0
CIRCLE
 5
AB6
 330
BF
 100
AcDbEntity
 100
AcDbCircle
 10
1813.401066
 20
1596.263988
 40
19.050000
 0
CIRCLE
 5
AB7
 330
BF
 100
AcDbEntity
 100
AcDbCircle
 10
1901.389246
 20
1596.263988
 40
19.050000
 0
CIRCLE
 5
AB8
 330
BF
 100
AcDbEntity
 100
AcDbCircle
 10
1989.377426
 20
1596.263988
 40
19.050000
 0
CIRCLE
 5
AB9
 330
BF
 100
AcDbEntity
 100
AcDbCircle
 10
2077.365606
 20
1596.263988
 40
19.050000
 0
CIRCLE
 5
ABA
 330
BF
 100
AcDbEntity
 100
AcDbCircle
 10
2165.353786
 20
1596.263988
 40
19.050000
 0
CIRCLE
 5
ABB
 330
BF
 100
AcDbEntity
 100
AcDbCircle
 10
1021.507446
 20
1596.263988
 40
19.050000
 0
CIRCLE
 5
ABC
 330
BF
 100
AcDbEntity
 100
AcDbCircle
 10
933.519266
 20
1596.263988
 40
19.050000
 0
CIRCLE
 5
ABD
 330
BF
 100
AcDbEntity
 100
AcDbCircle
 10
845.531086
 20
1596.263988
 40
19.050000
 0
CIRCLE
 5
ABE
 330
BF
 100
AcDbEntity
 100
AcDbCircle
 10
757.542906
 20
1596.263988
 40
19.050000
 0
CIRCLE
 5
ABF
 330
BF
 100
AcDbEntity
 100
AcDbCircle
 10
669.554726
 20
1596.263988
 40
19.050000
 0
CIRCLE
 5
AC0
 330
BF
 100
AcDbEntity
 100
AcDbCircle
 10
581.566546
 20
1596.263988
 40
19.050000
 0
CIRCLE
 5
AC1
 330
BF
 100
AcDbEntity
 100
AcDbCircle
 10
1681.418796
 20
1621.663988
 40
19.050000
 0
CIRCLE
 5
AC2
 330
BF
 100
AcDbEntity
 100
AcDbCircle
 10
1769.406976
 20
1621.663988
 40
19.050000
 0
CIRCLE
 5
AC3
 330
BF
 100
AcDbEntity
 100
AcDbCircle
 10
1857.395156
 20
1621.663988
 40
19.050000
 0
CIRCLE
 5
AC4
 330
BF
 100
AcDbEntity
 100
AcDbCircle
 10
1945.383336
 20
1621.663988
 40
19.050000
 0
CIRCLE
 5
AC5
 330
BF
 100
AcDbEntity
 100
AcDbCircle
 10
2033.371516
 20
1621.663988
 40
19.050000
 0
CIRCLE
 5
AC6
 330
BF
 100
AcDbEntity
 100
AcDbCircle
 10
2121.359696
 20
1621.663988
 40
19.050000
 0
CIRCLE
 5
AC7
 330
BF
 100
AcDbEntity
 100
AcDbCircle
 10
2209.347876
 20
1621.663988
 40
19.050000
 0
CIRCLE
 5
AC8
 330
BF
 100
AcDbEntity
 100
AcDbCircle
 10
1065.501536
 20
1621.663988
 40
19.050000
 0
CIRCLE
 5
AC9
 330
BF
 100
AcDbEntity
 100
AcDbCircle
 10
977.513356
 20
1621.663988
 40
19.050000
 0
CIRCLE
 5
ACA
 330
BF
 100
AcDbEntity
 100
AcDbCircle
 10
889.525176
 20
1621.663988
 40
19.050000
 0
CIRCLE
 5
ACB
 330
BF
 100
AcDbEntity
 100
AcDbCircle
 10
801.536996
 20
1621.663988
 40
19.050000
 0
CIRCLE
 5
ACC
 330
BF
 100
AcDbEntity
 100
AcDbCircle
 10
713.548816
 20
1621.663988
 40
19.050000
 0
CIRCLE
 5
ACD
 330
BF
 100
AcDbEntity
 100
AcDbCircle
 10
625.560636
 20
1621.663988
 40
19.050000
 0
CIRCLE
 5
ACE
 330
BF
 100
AcDbEntity
 100
AcDbCircle
 10
537.572456
 20
1621.663988
 40
19.050000
 0
CIRCLE
 5
ACF
 330
BF
 100
AcDbEntity
 100
AcDbCircle
 10
1725.412886
 20
1647.063987
 40
19.050000
 0
CIRCLE
 5
AD0
 330
BF
 100
AcDbEntity
 100
AcDbCircle
 10
1813.401066
 20
1647.063987
 40
19.050000
 0
CIRCLE
 5
AD1
 330
BF
 100
AcDbEntity
 100
AcDbCircle
 10
1901.389246
 20
1647.063987
 40
19.050000
 0
CIRCLE
 5
AD2
 330
BF
 100
AcDbEntity
 100
AcDbCircle
 10
1989.377426
 20
1647.063987
 40
19.050000
 0
CIRCLE
 5
AD3
 330
BF
 100
AcDbEntity
 100
AcDbCircle
 10
2077.365606
 20
1647.063987
 40
19.050000
 0
CIRCLE
 5
AD4
 330
BF
 100
AcDbEntity
 100
AcDbCircle
 10
2165.353786
 20
1647.063987
 40
19.050000
 0
CIRCLE
 5
AD5
 330
BF
 100
AcDbEntity
 100
AcDbCircle
 10
1021.507446
 20
1647.063987
 40
19.050000
 0
CIRCLE
 5
AD6
 330
BF
 100
AcDbEntity
 100
AcDbCircle
 10
933.519266
 20
1647.063987
 40
19.050000
 0
CIRCLE
 5
AD7
 330
BF
 100
AcDbEntity
 100
AcDbCircle
 10
845.531086
 20
1647.063987
 40
19.050000
 0
CIRCLE
 5
AD8
 330
BF
 100
AcDbEntity
 100
AcDbCircle
 10
757.542906
 20
1647.063987
 40
19.050000
 0
CIRCLE
 5
AD9
 330
BF
 100
AcDbEntity
 100
AcDbCircle
 10
669.554726
 20
1647.063987
 40
19.050000
 0
CIRCLE
 5
ADA
 330
BF
 100
AcDbEntity
 100
AcDbCircle
 10
581.566546
 20
1647.063987
 40
19.050000
 0
CIRCLE
 5
ADB
 330
BF
 100
AcDbEntity
 100
AcDbCircle
 10
1681.418796
 20
1672.463987
 40
19.050000
 0
CIRCLE
 5
ADC
 330
BF
 100
AcDbEntity
 100
AcDbCircle
 10
1769.406976
 20
1672.463987
 40
19.050000
 0
CIRCLE
 5
ADD
 330
BF
 100
AcDbEntity
 100
AcDbCircle
 10
1857.395156
 20
1672.463987
 40
19.050000
 0
CIRCLE
 5
ADE
 330
BF
 100
AcDbEntity
 100
AcDbCircle
 10
1945.383336
 20
1672.463987
 40
19.050000
 0
CIRCLE
 5
ADF
 330
BF
 100
AcDbEntity
 100
AcDbCircle
 10
2033.371516
 20
1672.463987
 40
19.050000
 0
CIRCLE
 5
AE0
 330
BF
 100
AcDbEntity
 100
AcDbCircle
 10
2121.359696
 20
1672.463987
 40
19.050000
 0
CIRCLE
 5
AE1
 330
BF
 100
AcDbEntity
 100
AcDbCircle
 10
1065.501536
 20
1672.463987
 40
19.050000
 0
CIRCLE
 5
AE2
 330
BF
 100
AcDbEntity
 100
AcDbCircle
 10
977.513356
 20
1672.463987
 40
19.050000
 0
CIRCLE
 5
AE3
 330
BF
 100
AcDbEntity
 100
AcDbCircle
 10
889.525176
 20
1672.463987
 40
19.050000
 0
CIRCLE
 5
AE4
 330
BF
 100
AcDbEntity
 100
AcDbCircle
 10
801.536996
 20
1672.463987
 40
19.050000
 0
CIRCLE
 5
AE5
 330
BF
 100
AcDbEntity
 100
AcDbCircle
 10
713.548816
 20
1672.463987
 40
19.050000
 0
CIRCLE
 5
AE6
 330
BF
 100
AcDbEntity
 100
AcDbCircle
 10
625.560636
 20
1672.463987
 40
19.050000
 0
CIRCLE
 5
AE7
 330
BF
 100
AcDbEntity
 100
AcDbCircle
 10
1725.412886
 20
1697.863987
 40
19.050000
 0
CIRCLE
 5
AE8
 330
BF
 100
AcDbEntity
 100
AcDbCircle
 10
1813.401066
 20
1697.863987
 40
19.050000
 0
CIRCLE
 5
AE9
 330
BF
 100
AcDbEntity
 100
AcDbCircle
 10
1901.389246
 20
1697.863987
 40
19.050000
 0
CIRCLE
 5
AEA
 330
BF
 100
AcDbEntity
 100
AcDbCircle
 10
1989.377426
 20
1697.863987
 40
19.050000
 0
CIRCLE
 5
AEB
 330
BF
 100
AcDbEntity
 100
AcDbCircle
 10
2077.365606
 20
1697.863987
 40
19.050000
 0
CIRCLE
 5
AEC
 330
BF
 100
AcDbEntity
 100
AcDbCircle
 10
2165.353786
 20
1697.863987
 40
19.050000
 0
CIRCLE
 5
AED
 330
BF
 100
AcDbEntity
 100
AcDbCircle
 10
1021.507446
 20
1697.863987
 40
19.050000
 0
CIRCLE
 5
AEE
 330
BF
 100
AcDbEntity
 100
AcDbCircle
 10
933.519266
 20
1697.863987
 40
19.050000
 0
CIRCLE
 5
AEF
 330
BF
 100
AcDbEntity
 100
AcDbCircle
 10
845.531086
 20
1697.863987
 40
19.050000
 0
CIRCLE
 5
AF0
 330
BF
 100
AcDbEntity
 100
AcDbCircle
 10
757.542906
 20
1697.863987
 40
19.050000
 0
CIRCLE
 5
AF1
 330
BF
 100
AcDbEntity
 100
AcDbCircle
 10
669.554726
 20
1697.863987
 40
19.050000
 0
CIRCLE
 5
AF2
 330
BF
 100
AcDbEntity
 100
AcDbCircle
 10
581.566546
 20
1697.863987
 40
19.050000
 0
CIRCLE
 5
AF3
 330
BF
 100
AcDbEntity
 100
AcDbCircle
 10
1681.418796
 20
1723.263986
 40
19.050000
 0
CIRCLE
 5
AF4
 330
BF
 100
AcDbEntity
 100
AcDbCircle
 10
1769.406976
 20
1723.263986
 40
19.050000
 0
CIRCLE
 5
AF5
 330
BF
 100
AcDbEntity
 100
AcDbCircle
 10
1857.395156
 20
1723.263986
 40
19.050000
 0
CIRCLE
 5
AF6
 330
BF
 100
AcDbEntity
 100
AcDbCircle
 10
1945.383336
 20
1723.263986
 40
19.050000
 0
CIRCLE
 5
AF7
 330
BF
 100
AcDbEntity
 100
AcDbCircle
 10
2033.371516
 20
1723.263986
 40
19.050000
 0
CIRCLE
 5
AF8
 330
BF
 100
AcDbEntity
 100
AcDbCircle
 10
2121.359696
 20
1723.263986
 40
19.050000
 0
CIRCLE
 5
AF9
 330
BF
 100
AcDbEntity
 100
AcDbCircle
 10
1065.501536
 20
1723.263986
 40
19.050000
 0
CIRCLE
 5
AFA
 330
BF
 100
AcDbEntity
 100
AcDbCircle
 10
977.513356
 20
1723.263986
 40
19.050000
 0
CIRCLE
 5
AFB
 330
BF
 100
AcDbEntity
 100
AcDbCircle
 10
889.525176
 20
1723.263986
 40
19.050000
 0
CIRCLE
 5
AFC
 330
BF
 100
AcDbEntity
 100
AcDbCircle
 10
801.536996
 20
1723.263986
 40
19.050000
 0
CIRCLE
 5
AFD
 330
BF
 100
AcDbEntity
 100
AcDbCircle
 10
713.548816
 20
1723.263986
 40
19.050000
 0
CIRCLE
 5
AFE
 330
BF
 100
AcDbEntity
 100
AcDbCircle
 10
625.560636
 20
1723.263986
 40
19.050000
 0
CIRCLE
 5
AFF
 330
BF
 100
AcDbEntity
 100
AcDbCircle
 10
1637.424706
 20
1748.663986
 40
19.050000
 0
CIRCLE
 5
B00
 330
BF
 100
AcDbEntity
 100
AcDbCircle
 10
1725.412886
 20
1748.663986
 40
19.050000
 0
CIRCLE
 5
B01
 330
BF
 100
AcDbEntity
 100
AcDbCircle
 10
1813.401066
 20
1748.663986
 40
19.050000
 0
CIRCLE
 5
B02
 330
BF
 100
AcDbEntity
 100
AcDbCircle
 10
1901.389246
 20
1748.663986
 40
19.050000
 0
CIRCLE
 5
B03
 330
BF
 100
AcDbEntity
 100
AcDbCircle
 10
1989.377426
 20
1748.663986
 40
19.050000
 0
CIRCLE
 5
B04
 330
BF
 100
AcDbEntity
 100
AcDbCircle
 10
2077.365606
 20
1748.663986
 40
19.050000
 0
CIRCLE
 5
B05
 330
BF
 100
AcDbEntity
 100
AcDbCircle
 10
2165.353786
 20
1748.663986
 40
19.050000
 0
CIRCLE
 5
B06
 330
BF
 100
AcDbEntity
 100
AcDbCircle
 10
1109.495626
 20
1748.663986
 40
19.050000
 0
CIRCLE
 5
B07
 330
BF
 100
AcDbEntity
 100
AcDbCircle
 10
1021.507446
 20
1748.663986
 40
19.050000
 0
CIRCLE
 5
B08
 330
BF
 100
AcDbEntity
 100
AcDbCircle
 10
933.519266
 20
1748.663986
 40
19.050000
 0
CIRCLE
 5
B09
 330
BF
 100
AcDbEntity
 100
AcDbCircle
 10
845.531086
 20
1748.663986
 40
19.050000
 0
CIRCLE
 5
B0A
 330
BF
 100
AcDbEntity
 100
AcDbCircle
 10
757.542906
 20
1748.663986
 40
19.050000
 0
CIRCLE
 5
B0B
 330
BF
 100
AcDbEntity
 100
AcDbCircle
 10
669.554726
 20
1748.663986
 40
19.050000
 0
CIRCLE
 5
B0C
 330
BF
 100
AcDbEntity
 100
AcDbCircle
 10
581.566546
 20
1748.663986
 40
19.050000
 0
CIRCLE
 5
B0D
 330
BF
 100
AcDbEntity
 100
AcDbCircle
 10
1681.418796
 20
1774.063986
 40
19.050000
 0
CIRCLE
 5
B0E
 330
BF
 100
AcDbEntity
 100
AcDbCircle
 10
1769.406976
 20
1774.063986
 40
19.050000
 0
CIRCLE
 5
B0F
 330
BF
 100
AcDbEntity
 100
AcDbCircle
 10
1857.395156
 20
1774.063986
 40
19.050000
 0
CIRCLE
 5
B10
 330
BF
 100
AcDbEntity
 100
AcDbCircle
 10
1945.383336
 20
1774.063986
 40
19.050000
 0
CIRCLE
 5
B11
 330
BF
 100
AcDbEntity
 100
AcDbCircle
 10
2033.371516
 20
1774.063986
 40
19.050000
 0
CIRCLE
 5
B12
 330
BF
 100
AcDbEntity
 100
AcDbCircle
 10
2121.359696
 20
1774.063986
 40
19.050000
 0
CIRCLE
 5
B13
 330
BF
 100
AcDbEntity
 100
AcDbCircle
 10
1065.501536
 20
1774.063986
 40
19.050000
 0
CIRCLE
 5
B14
 330
BF
 100
AcDbEntity
 100
AcDbCircle
 10
977.513356
 20
1774.063986
 40
19.050000
 0
CIRCLE
 5
B15
 330
BF
 100
AcDbEntity
 100
AcDbCircle
 10
889.525176
 20
1774.063986
 40
19.050000
 0
CIRCLE
 5
B16
 330
BF
 100
AcDbEntity
 100
AcDbCircle
 10
801.536996
 20
1774.063986
 40
19.050000
 0
CIRCLE
 5
B17
 330
BF
 100
AcDbEntity
 100
AcDbCircle
 10
713.548816
 20
1774.063986
 40
19.050000
 0
CIRCLE
 5
B18
 330
BF
 100
AcDbEntity
 100
AcDbCircle
 10
625.560636
 20
1774.063986
 40
19.050000
 0
CIRCLE
 5
B19
 330
BF
 100
AcDbEntity
 100
AcDbCircle
 10
1637.424706
 20
1799.463985
 40
19.050000
 0
CIRCLE
 5
B1A
 330
BF
 100
AcDbEntity
 100
AcDbCircle
 10
1725.412886
 20
1799.463985
 40
19.050000
 0
CIRCLE
 5
B1B
 330
BF
 100
AcDbEntity
 100
AcDbCircle
 10
1813.401066
 20
1799.463985
 40
19.050000
 0
CIRCLE
 5
B1C
 330
BF
 100
AcDbEntity
 100
AcDbCircle
 10
1901.389246
 20
1799.463985
 40
19.050000
 0
CIRCLE
 5
B1D
 330
BF
 100
AcDbEntity
 100
AcDbCircle
 10
1989.377426
 20
1799.463985
 40
19.050000
 0
CIRCLE
 5
B1E
 330
BF
 100
AcDbEntity
 100
AcDbCircle
 10
2077.365606
 20
1799.463985
 40
19.050000
 0
CIRCLE
 5
B1F
 330
BF
 100
AcDbEntity
 100
AcDbCircle
 10
2165.353786
 20
1799.463985
 40
19.050000
 0
CIRCLE
 5
B20
 330
BF
 100
AcDbEntity
 100
AcDbCircle
 10
1109.495626
 20
1799.463985
 40
19.050000
 0
CIRCLE
 5
B21
 330
BF
 100
AcDbEntity
 100
AcDbCircle
 10
1021.507446
 20
1799.463985
 40
19.050000
 0
CIRCLE
 5
B22
 330
BF
 100
AcDbEntity
 100
AcDbCircle
 10
933.519266
 20
1799.463985
 40
19.050000
 0
CIRCLE
 5
B23
 330
BF
 100
AcDbEntity
 100
AcDbCircle
 10
845.531086
 20
1799.463985
 40
19.050000
 0
CIRCLE
 5
B24
 330
BF
 100
AcDbEntity
 100
AcDbCircle
 10
757.542906
 20
1799.463985
 40
19.050000
 0
CIRCLE
 5
B25
 330
BF
 100
AcDbEntity
 100
AcDbCircle
 10
669.554726
 20
1799.463985
 40
19.050000
 0
CIRCLE
 5
B26
 330
BF
 100
AcDbEntity
 100
AcDbCircle
 10
581.566546
 20
1799.463985
 40
19.050000
 0
CIRCLE
 5
B27
 330
BF
 100
AcDbEntity
 100
AcDbCircle
 10
1593.430616
 20
1824.863985
 40
19.050000
 0
CIRCLE
 5
B28
 330
BF
 100
AcDbEntity
 100
AcDbCircle
 10
1681.418796
 20
1824.863985
 40
19.050000
 0
CIRCLE
 5
B29
 330
BF
 100
AcDbEntity
 100
AcDbCircle
 10
1769.406976
 20
1824.863985
 40
19.050000
 0
CIRCLE
 5
B2A
 330
BF
 100
AcDbEntity
 100
AcDbCircle
 10
1857.395156
 20
1824.863985
 40
19.050000
 0
CIRCLE
 5
B2B
 330
BF
 100
AcDbEntity
 100
AcDbCircle
 10
1945.383336
 20
1824.863985
 40
19.050000
 0
CIRCLE
 5
B2C
 330
BF
 100
AcDbEntity
 100
AcDbCircle
 10
2033.371516
 20
1824.863985
 40
19.050000
 0
CIRCLE
 5
B2D
 330
BF
 100
AcDbEntity
 100
AcDbCircle
 10
2121.359696
 20
1824.863985
 40
19.050000
 0
CIRCLE
 5
B2E
 330
BF
 100
AcDbEntity
 100
AcDbCircle
 10
1153.489716
 20
1824.863985
 40
19.050000
 0
CIRCLE
 5
B2F
 330
BF
 100
AcDbEntity
 100
AcDbCircle
 10
1065.501536
 20
1824.863985
 40
19.050000
 0
CIRCLE
 5
B30
 330
BF
 100
AcDbEntity
 100
AcDbCircle
 10
977.513356
 20
1824.863985
 40
19.050000
 0
CIRCLE
 5
B31
 330
BF
 100
AcDbEntity
 100
AcDbCircle
 10
889.525176
 20
1824.863985
 40
19.050000
 0
CIRCLE
 5
B32
 330
BF
 100
AcDbEntity
 100
AcDbCircle
 10
801.536996
 20
1824.863985
 40
19.050000
 0
CIRCLE
 5
B33
 330
BF
 100
AcDbEntity
 100
AcDbCircle
 10
713.548816
 20
1824.863985
 40
19.050000
 0
CIRCLE
 5
B34
 330
BF
 100
AcDbEntity
 100
AcDbCircle
 10
625.560636
 20
1824.863985
 40
19.050000
 0
CIRCLE
 5
B35
 330
BF
 100
AcDbEntity
 100
AcDbCircle
 10
1549.436526
 20
1850.263985
 40
19.050000
 0
CIRCLE
 5
B36
 330
BF
 100
AcDbEntity
 100
AcDbCircle
 10
1637.424706
 20
1850.263985
 40
19.050000
 0
CIRCLE
 5
B37
 330
BF
 100
AcDbEntity
 100
AcDbCircle
 10
1725.412886
 20
1850.263985
 40
19.050000
 0
CIRCLE
 5
B38
 330
BF
 100
AcDbEntity
 100
AcDbCircle
 10
1813.401066
 20
1850.263985
 40
19.050000
 0
CIRCLE
 5
B39
 330
BF
 100
AcDbEntity
 100
AcDbCircle
 10
1901.389246
 20
1850.263985
 40
19.050000
 0
CIRCLE
 5
B3A
 330
BF
 100
AcDbEntity
 100
AcDbCircle
 10
1989.377426
 20
1850.263985
 40
19.050000
 0
CIRCLE
 5
B3B
 330
BF
 100
AcDbEntity
 100
AcDbCircle
 10
2077.365606
 20
1850.263985
 40
19.050000
 0
CIRCLE
 5
B3C
 330
BF
 100
AcDbEntity
 100
AcDbCircle
 10
2165.353786
 20
1850.263985
 40
19.050000
 0
CIRCLE
 5
B3D
 330
BF
 100
AcDbEntity
 100
AcDbCircle
 10
1197.483806
 20
1850.263985
 40
19.050000
 0
CIRCLE
 5
B3E
 330
BF
 100
AcDbEntity
 100
AcDbCircle
 10
1109.495626
 20
1850.263985
 40
19.050000
 0
CIRCLE
 5
B3F
 330
BF
 100
AcDbEntity
 100
AcDbCircle
 10
1021.507446
 20
1850.263985
 40
19.050000
 0
CIRCLE
 5
B40
 330
BF
 100
AcDbEntity
 100
AcDbCircle
 10
933.519266
 20
1850.263985
 40
19.050000
 0
CIRCLE
 5
B41
 330
BF
 100
AcDbEntity
 100
AcDbCircle
 10
845.531086
 20
1850.263985
 40
19.050000
 0
CIRCLE
 5
B42
 330
BF
 100
AcDbEntity
 100
AcDbCircle
 10
757.542906
 20
1850.263985
 40
19.050000
 0
CIRCLE
 5
B43
 330
BF
 100
AcDbEntity
 100
AcDbCircle
 10
669.554726
 20
1850.263985
 40
19.050000
 0
CIRCLE
 5
B44
 330
BF
 100
AcDbEntity
 100
AcDbCircle
 10
581.566546
 20
1850.263985
 40
19.050000
 0
CIRCLE
 5
B45
 330
BF
 100
AcDbEntity
 100
AcDbCircle
 10
1505.442436
 20
1875.663985
 40
19.050000
 0
CIRCLE
 5
B46
 330
BF
 100
AcDbEntity
 100
AcDbCircle
 10
1593.430616
 20
1875.663985
 40
19.050000
 0
CIRCLE
 5
B47
 330
BF
 100
AcDbEntity
 100
AcDbCircle
 10
1681.418796
 20
1875.663985
 40
19.050000
 0
CIRCLE
 5
B48
 330
BF
 100
AcDbEntity
 100
AcDbCircle
 10
1769.406976
 20
1875.663985
 40
19.050000
 0
CIRCLE
 5
B49
 330
BF
 100
AcDbEntity
 100
AcDbCircle
 10
1857.395156
 20
1875.663985
 40
19.050000
 0
CIRCLE
 5
B4A
 330
BF
 100
AcDbEntity
 100
AcDbCircle
 10
1945.383336
 20
1875.663985
 40
19.050000
 0
CIRCLE
 5
B4B
 330
BF
 100
AcDbEntity
 100
AcDbCircle
 10
2033.371516
 20
1875.663985
 40
19.050000
 0
CIRCLE
 5
B4C
 330
BF
 100
AcDbEntity
 100
AcDbCircle
 10
2121.359696
 20
1875.663985
 40
19.050000
 0
CIRCLE
 5
B4D
 330
BF
 100
AcDbEntity
 100
AcDbCircle
 10
1241.477896
 20
1875.663985
 40
19.050000
 0
CIRCLE
 5
B4E
 330
BF
 100
AcDbEntity
 100
AcDbCircle
 10
1153.489716
 20
1875.663985
 40
19.050000
 0
CIRCLE
 5
B4F
 330
BF
 100
AcDbEntity
 100
AcDbCircle
 10
1065.501536
 20
1875.663985
 40
19.050000
 0
CIRCLE
 5
B50
 330
BF
 100
AcDbEntity
 100
AcDbCircle
 10
977.513356
 20
1875.663985
 40
19.050000
 0
CIRCLE
 5
B51
 330
BF
 100
AcDbEntity
 100
AcDbCircle
 10
889.525176
 20
1875.663985
 40
19.050000
 0
CIRCLE
 5
B52
 330
BF
 100
AcDbEntity
 100
AcDbCircle
 10
801.536996
 20
1875.663985
 40
19.050000
 0
CIRCLE
 5
B53
 330
BF
 100
AcDbEntity
 100
AcDbCircle
 10
713.548816
 20
1875.663985
 40
19.050000
 0
CIRCLE
 5
B54
 330
BF
 100
AcDbEntity
 100
AcDbCircle
 10
625.560636
 20
1875.663985
 40
19.050000
 0
CIRCLE
 5
B55
 330
BF
 100
AcDbEntity
 100
AcDbCircle
 10
1461.448346
 20
1901.063984
 40
19.050000
 0
CIRCLE
 5
B56
 330
BF
 100
AcDbEntity
 100
AcDbCircle
 10
1549.436526
 20
1901.063984
 40
19.050000
 0
CIRCLE
 5
B57
 330
BF
 100
AcDbEntity
 100
AcDbCircle
 10
1637.424706
 20
1901.063984
 40
19.050000
 0
CIRCLE
 5
B58
 330
BF
 100
AcDbEntity
 100
AcDbCircle
 10
1725.412886
 20
1901.063984
 40
19.050000
 0
CIRCLE
 5
B59
 330
BF
 100
AcDbEntity
 100
AcDbCircle
 10
1813.401066
 20
1901.063984
 40
19.050000
 0
CIRCLE
 5
B5A
 330
BF
 100
AcDbEntity
 100
AcDbCircle
 10
1901.389246
 20
1901.063984
 40
19.050000
 0
CIRCLE
 5
B5B
 330
BF
 100
AcDbEntity
 100
AcDbCircle
 10
1989.377426
 20
1901.063984
 40
19.050000
 0
CIRCLE
 5
B5C
 330
BF
 100
AcDbEntity
 100
AcDbCircle
 10
2077.365606
 20
1901.063984
 40
19.050000
 0
CIRCLE
 5
B5D
 330
BF
 100
AcDbEntity
 100
AcDbCircle
 10
1285.471986
 20
1901.063984
 40
19.050000
 0
CIRCLE
 5
B5E
 330
BF
 100
AcDbEntity
 100
AcDbCircle
 10
1197.483806
 20
1901.063984
 40
19.050000
 0
CIRCLE
 5
B5F
 330
BF
 100
AcDbEntity
 100
AcDbCircle
 10
1109.495626
 20
1901.063984
 40
19.050000
 0
CIRCLE
 5
B60
 330
BF
 100
AcDbEntity
 100
AcDbCircle
 10
1021.507446
 20
1901.063984
 40
19.050000
 0
CIRCLE
 5
B61
 330
BF
 100
AcDbEntity
 100
AcDbCircle
 10
933.519266
 20
1901.063984
 40
19.050000
 0
CIRCLE
 5
B62
 330
BF
 100
AcDbEntity
 100
AcDbCircle
 10
845.531086
 20
1901.063984
 40
19.050000
 0
CIRCLE
 5
B63
 330
BF
 100
AcDbEntity
 100
AcDbCircle
 10
757.542906
 20
1901.063984
 40
19.050000
 0
CIRCLE
 5
B64
 330
BF
 100
AcDbEntity
 100
AcDbCircle
 10
669.554726
 20
1901.063984
 40
19.050000
 0
CIRCLE
 5
B65
 330
BF
 100
AcDbEntity
 100
AcDbCircle
 10
1417.454256
 20
1926.463984
 40
19.050000
 0
CIRCLE
 5
B66
 330
BF
 100
AcDbEntity
 100
AcDbCircle
 10
1505.442436
 20
1926.463984
 40
19.050000
 0
CIRCLE
 5
B67
 330
BF
 100
AcDbEntity
 100
AcDbCircle
 10
1593.430616
 20
1926.463984
 40
19.050000
 0
CIRCLE
 5
B68
 330
BF
 100
AcDbEntity
 100
AcDbCircle
 10
1681.418796
 20
1926.463984
 40
19.050000
 0
CIRCLE
 5
B69
 330
BF
 100
AcDbEntity
 100
AcDbCircle
 10
1769.406976
 20
1926.463984
 40
19.050000
 0
CIRCLE
 5
B6A
 330
BF
 100
AcDbEntity
 100
AcDbCircle
 10
1857.395156
 20
1926.463984
 40
19.050000
 0
CIRCLE
 5
B6B
 330
BF
 100
AcDbEntity
 100
AcDbCircle
 10
1945.383336
 20
1926.463984
 40
19.050000
 0
CIRCLE
 5
B6C
 330
BF
 100
AcDbEntity
 100
AcDbCircle
 10
2033.371516
 20
1926.463984
 40
19.050000
 0
CIRCLE
 5
B6D
 330
BF
 100
AcDbEntity
 100
AcDbCircle
 10
2121.359696
 20
1926.463984
 40
19.050000
 0
CIRCLE
 5
B6E
 330
BF
 100
AcDbEntity
 100
AcDbCircle
 10
1329.466076
 20
1926.463984
 40
19.050000
 0
CIRCLE
 5
B6F
 330
BF
 100
AcDbEntity
 100
AcDbCircle
 10
1241.477896
 20
1926.463984
 40
19.050000
 0
CIRCLE
 5
B70
 330
BF
 100
AcDbEntity
 100
AcDbCircle
 10
1153.489716
 20
1926.463984
 40
19.050000
 0
CIRCLE
 5
B71
 330
BF
 100
AcDbEntity
 100
AcDbCircle
 10
1065.501536
 20
1926.463984
 40
19.050000
 0
CIRCLE
 5
B72
 330
BF
 100
AcDbEntity
 100
AcDbCircle
 10
977.513356
 20
1926.463984
 40
19.050000
 0
CIRCLE
 5
B73
 330
BF
 100
AcDbEntity
 100
AcDbCircle
 10
889.525176
 20
1926.463984
 40
19.050000
 0
CIRCLE
 5
B74
 330
BF
 100
AcDbEntity
 100
AcDbCircle
 10
801.536996
 20
1926.463984
 40
19.050000
 0
CIRCLE
 5
B75
 330
BF
 100
AcDbEntity
 100
AcDbCircle
 10
713.548816
 20
1926.463984
 40
19.050000
 0
CIRCLE
 5
B76
 330
BF
 100
AcDbEntity
 100
AcDbCircle
 10
625.560636
 20
1926.463984
 40
19.050000
 0
CIRCLE
 5
B77
 330
BF
 100
AcDbEntity
 100
AcDbCircle
 10
1373.460166
 20
1951.863984
 40
19.050000
 0
CIRCLE
 5
B78
 330
BF
 100
AcDbEntity
 100
AcDbCircle
 10
1461.448346
 20
1951.863984
 40
19.050000
 0
CIRCLE
 5
B79
 330
BF
 100
AcDbEntity
 100
AcDbCircle
 10
1549.436526
 20
1951.863984
 40
19.050000
 0
CIRCLE
 5
B7A
 330
BF
 100
AcDbEntity
 100
AcDbCircle
 10
1637.424706
 20
1951.863984
 40
19.050000
 0
CIRCLE
 5
B7B
 330
BF
 100
AcDbEntity
 100
AcDbCircle
 10
1725.412886
 20
1951.863984
 40
19.050000
 0
CIRCLE
 5
B7C
 330
BF
 100
AcDbEntity
 100
AcDbCircle
 10
1813.401066
 20
1951.863984
 40
19.050000
 0
CIRCLE
 5
B7D
 330
BF
 100
AcDbEntity
 100
AcDbCircle
 10
1901.389246
 20
1951.863984
 40
19.050000
 0
CIRCLE
 5
B7E
 330
BF
 100
AcDbEntity
 100
AcDbCircle
 10
1989.377426
 20
1951.863984
 40
19.050000
 0
CIRCLE
 5
B7F
 330
BF
 100
AcDbEntity
 100
AcDbCircle
 10
2077.365606
 20
1951.863984
 40
19.050000
 0
CIRCLE
 5
B80
 330
BF
 100
AcDbEntity
 100
AcDbCircle
 10
1285.471986
 20
1951.863984
 40
19.050000
 0
CIRCLE
 5
B81
 330
BF
 100
AcDbEntity
 100
AcDbCircle
 10
1197.483806
 20
1951.863984
 40
19.050000
 0
CIRCLE
 5
B82
 330
BF
 100
AcDbEntity
 100
AcDbCircle
 10
1109.495626
 20
1951.863984
 40
19.050000
 0
CIRCLE
 5
B83
 330
BF
 100
AcDbEntity
 100
AcDbCircle
 10
1021.507446
 20
1951.863984
 40
19.050000
 0
CIRCLE
 5
B84
 330
BF
 100
AcDbEntity
 100
AcDbCircle
 10
933.519266
 20
1951.863984
 40
19.050000
 0
CIRCLE
 5
B85
 330
BF
 100
AcDbEntity
 100
AcDbCircle
 10
845.531086
 20
1951.863984
 40
19.050000
 0
CIRCLE
 5
B86
 330
BF
 100
AcDbEntity
 100
AcDbCircle
 10
757.542906
 20
1951.863984
 40
19.050000
 0
CIRCLE
 5
B87
 330
BF
 100
AcDbEntity
 100
AcDbCircle
 10
669.554726
 20
1951.863984
 40
19.050000
 0
CIRCLE
 5
B88
 330
BF
 100
AcDbEntity
 100
AcDbCircle
 10
1417.454256
 20
1977.263983
 40
19.050000
 0
CIRCLE
 5
B89
 330
BF
 100
AcDbEntity
 100
AcDbCircle
 10
1505.442436
 20
1977.263983
 40
19.050000
 0
CIRCLE
 5
B8A
 330
BF
 100
AcDbEntity
 100
AcDbCircle
 10
1593.430616
 20
1977.263983
 40
19.050000
 0
CIRCLE
 5
B8B
 330
BF
 100
AcDbEntity
 100
AcDbCircle
 10
1681.418796
 20
1977.263983
 40
19.050000
 0
CIRCLE
 5
B8C
 330
BF
 100
AcDbEntity
 100
AcDbCircle
 10
1769.406976
 20
1977.263983
 40
19.050000
 0
CIRCLE
 5
B8D
 330
BF
 100
AcDbEntity
 100
AcDbCircle
 10
1857.395156
 20
1977.263983
 40
19.050000
 0
CIRCLE
 5
B8E
 330
BF
 100
AcDbEntity
 100
AcDbCircle
 10
1945.383336
 20
1977.263983
 40
19.050000
 0
CIRCLE
 5
B8F
 330
BF
 100
AcDbEntity
 100
AcDbCircle
 10
2033.371516
 20
1977.263983
 40
19.050000
 0
CIRCLE
 5
B90
 330
BF
 100
AcDbEntity
 100
AcDbCircle
 10
1329.466076
 20
1977.263983
 40
19.050000
 0
CIRCLE
 5
B91
 330
BF
 100
AcDbEntity
 100
AcDbCircle
 10
1241.477896
 20
1977.263983
 40
19.050000
 0
CIRCLE
 5
B92
 330
BF
 100
AcDbEntity
 100
AcDbCircle
 10
1153.489716
 20
1977.263983
 40
19.050000
 0
CIRCLE
 5
B93
 330
BF
 100
AcDbEntity
 100
AcDbCircle
 10
1065.501536
 20
1977.263983
 40
19.050000
 0
CIRCLE
 5
B94
 330
BF
 100
AcDbEntity
 100
AcDbCircle
 10
977.513356
 20
1977.263983
 40
19.050000
 0
CIRCLE
 5
B95
 330
BF
 100
AcDbEntity
 100
AcDbCircle
 10
889.525176
 20
1977.263983
 40
19.050000
 0
CIRCLE
 5
B96
 330
BF
 100
AcDbEntity
 100
AcDbCircle
 10
801.536996
 20
1977.263983
 40
19.050000
 0
CIRCLE
 5
B97
 330
BF
 100
AcDbEntity
 100
AcDbCircle
 10
713.548816
 20
1977.263983
 40
19.050000
 0
CIRCLE
 5
B98
 330
BF
 100
AcDbEntity
 100
AcDbCircle
 10
1373.460166
 20
2002.663983
 40
19.050000
 0
CIRCLE
 5
B99
 330
BF
 100
AcDbEntity
 100
AcDbCircle
 10
1461.448346
 20
2002.663983
 40
19.050000
 0
CIRCLE
 5
B9A
 330
BF
 100
AcDbEntity
 100
AcDbCircle
 10
1549.436526
 20
2002.663983
 40
19.050000
 0
CIRCLE
 5
B9B
 330
BF
 100
AcDbEntity
 100
AcDbCircle
 10
1637.424706
 20
2002.663983
 40
19.050000
 0
CIRCLE
 5
B9C
 330
BF
 100
AcDbEntity
 100
AcDbCircle
 10
1725.412886
 20
2002.663983
 40
19.050000
 0
CIRCLE
 5
B9D
 330
BF
 100
AcDbEntity
 100
AcDbCircle
 10
1813.401066
 20
2002.663983
 40
19.050000
 0
CIRCLE
 5
B9E
 330
BF
 100
AcDbEntity
 100
AcDbCircle
 10
1901.389246
 20
2002.663983
 40
19.050000
 0
CIRCLE
 5
B9F
 330
BF
 100
AcDbEntity
 100
AcDbCircle
 10
1989.377426
 20
2002.663983
 40
19.050000
 0
CIRCLE
 5
BA0
 330
BF
 100
AcDbEntity
 100
AcDbCircle
 10
2077.365606
 20
2002.663983
 40
19.050000
 0
CIRCLE
 5
BA1
 330
BF
 100
AcDbEntity
 100
AcDbCircle
 10
1285.471986
 20
2002.663983
 40
19.050000
 0
CIRCLE
 5
BA2
 330
BF
 100
AcDbEntity
 100
AcDbCircle
 10
1197.483806
 20
2002.663983
 40
19.050000
 0
CIRCLE
 5
BA3
 330
BF
 100
AcDbEntity
 100
AcDbCircle
 10
1109.495626
 20
2002.663983
 40
19.050000
 0
CIRCLE
 5
BA4
 330
BF
 100
AcDbEntity
 100
AcDbCircle
 10
1021.507446
 20
2002.663983
 40
19.050000
 0
CIRCLE
 5
BA5
 330
BF
 100
AcDbEntity
 100
AcDbCircle
 10
933.519266
 20
2002.663983
 40
19.050000
 0
CIRCLE
 5
BA6
 330
BF
 100
AcDbEntity
 100
AcDbCircle
 10
845.531086
 20
2002.663983
 40
19.050000
 0
CIRCLE
 5
BA7
 330
BF
 100
AcDbEntity
 100
AcDbCircle
 10
757.542906
 20
2002.663983
 40
19.050000
 0
CIRCLE
 5
BA8
 330
BF
 100
AcDbEntity
 100
AcDbCircle
 10
669.554726
 20
2002.663983
 40
19.050000
 0
CIRCLE
 5
BA9
 330
BF
 100
AcDbEntity
 100
AcDbCircle
 10
1417.454256
 20
2028.063983
 40
19.050000
 0
CIRCLE
 5
BAA
 330
BF
 100
AcDbEntity
 100
AcDbCircle
 10
1505.442436
 20
2028.063983
 40
19.050000
 0
CIRCLE
 5
BAB
 330
BF
 100
AcDbEntity
 100
AcDbCircle
 10
1593.430616
 20
2028.063983
 40
19.050000
 0
CIRCLE
 5
BAC
 330
BF
 100
AcDbEntity
 100
AcDbCircle
 10
1681.418796
 20
2028.063983
 40
19.050000
 0
CIRCLE
 5
BAD
 330
BF
 100
AcDbEntity
 100
AcDbCircle
 10
1769.406976
 20
2028.063983
 40
19.050000
 0
CIRCLE
 5
BAE
 330
BF
 100
AcDbEntity
 100
AcDbCircle
 10
1857.395156
 20
2028.063983
 40
19.050000
 0
CIRCLE
 5
BAF
 330
BF
 100
AcDbEntity
 100
AcDbCircle
 10
1945.383336
 20
2028.063983
 40
19.050000
 0
CIRCLE
 5
BB0
 330
BF
 100
AcDbEntity
 100
AcDbCircle
 10
2033.371516
 20
2028.063983
 40
19.050000
 0
CIRCLE
 5
BB1
 330
BF
 100
AcDbEntity
 100
AcDbCircle
 10
1329.466076
 20
2028.063983
 40
19.050000
 0
CIRCLE
 5
BB2
 330
BF
 100
AcDbEntity
 100
AcDbCircle
 10
1241.477896
 20
2028.063983
 40
19.050000
 0
CIRCLE
 5
BB3
 330
BF
 100
AcDbEntity
 100
AcDbCircle
 10
1153.489716
 20
2028.063983
 40
19.050000
 0
CIRCLE
 5
BB4
 330
BF
 100
AcDbEntity
 100
AcDbCircle
 10
1065.501536
 20
2028.063983
 40
19.050000
 0
CIRCLE
 5
BB5
 330
BF
 100
AcDbEntity
 100
AcDbCircle
 10
977.513356
 20
2028.063983
 40
19.050000
 0
CIRCLE
 5
BB6
 330
BF
 100
AcDbEntity
 100
AcDbCircle
 10
889.525176
 20
2028.063983
 40
19.050000
 0
CIRCLE
 5
BB7
 330
BF
 100
AcDbEntity
 100
AcDbCircle
 10
801.536996
 20
2028.063983
 40
19.050000
 0
CIRCLE
 5
BB8
 330
BF
 100
AcDbEntity
 100
AcDbCircle
 10
713.548816
 20
2028.063983
 40
19.050000
 0
CIRCLE
 5
BB9
 330
BF
 100
AcDbEntity
 100
AcDbCircle
 10
1373.460166
 20
2053.463982
 40
19.050000
 0
CIRCLE
 5
BBA
 330
BF
 100
AcDbEntity
 100
AcDbCircle
 10
1461.448346
 20
2053.463982
 40
19.050000
 0
CIRCLE
 5
BBB
 330
BF
 100
AcDbEntity
 100
AcDbCircle
 10
1549.436526
 20
2053.463982
 40
19.050000
 0
CIRCLE
 5
BBC
 330
BF
 100
AcDbEntity
 100
AcDbCircle
 10
1637.424706
 20
2053.463982
 40
19.050000
 0
CIRCLE
 5
BBD
 330
BF
 100
AcDbEntity
 100
AcDbCircle
 10
1725.412886
 20
2053.463982
 40
19.050000
 0
CIRCLE
 5
BBE
 330
BF
 100
AcDbEntity
 100
AcDbCircle
 10
1813.401066
 20
2053.463982
 40
19.050000
 0
CIRCLE
 5
BBF
 330
BF
 100
AcDbEntity
 100
AcDbCircle
 10
1901.389246
 20
2053.463982
 40
19.050000
 0
CIRCLE
 5
BC0
 330
BF
 100
AcDbEntity
 100
AcDbCircle
 10
1989.377426
 20
2053.463982
 40
19.050000
 0
CIRCLE
 5
BC1
 330
BF
 100
AcDbEntity
 100
AcDbCircle
 10
1285.471986
 20
2053.463982
 40
19.050000
 0
CIRCLE
 5
BC2
 330
BF
 100
AcDbEntity
 100
AcDbCircle
 10
1197.483806
 20
2053.463982
 40
19.050000
 0
CIRCLE
 5
BC3
 330
BF
 100
AcDbEntity
 100
AcDbCircle
 10
1109.495626
 20
2053.463982
 40
19.050000
 0
CIRCLE
 5
BC4
 330
BF
 100
AcDbEntity
 100
AcDbCircle
 10
1021.507446
 20
2053.463982
 40
19.050000
 0
CIRCLE
 5
BC5
 330
BF
 100
AcDbEntity
 100
AcDbCircle
 10
933.519266
 20
2053.463982
 40
19.050000
 0
CIRCLE
 5
BC6
 330
BF
 100
AcDbEntity
 100
AcDbCircle
 10
845.531086
 20
2053.463982
 40
19.050000
 0
CIRCLE
 5
BC7
 330
BF
 100
AcDbEntity
 100
AcDbCircle
 10
757.542906
 20
2053.463982
 40
19.050000
 0
CIRCLE
 5
BC8
 330
BF
 100
AcDbEntity
 100
AcDbCircle
 10
1417.454256
 20
2078.863982
 40
19.050000
 0
CIRCLE
 5
BC9
 330
BF
 100
AcDbEntity
 100
AcDbCircle
 10
1505.442436
 20
2078.863982
 40
19.050000
 0
CIRCLE
 5
BCA
 330
BF
 100
AcDbEntity
 100
AcDbCircle
 10
1593.430616
 20
2078.863982
 40
19.050000
 0
CIRCLE
 5
BCB
 330
BF
 100
AcDbEntity
 100
AcDbCircle
 10
1681.418796
 20
2078.863982
 40
19.050000
 0
CIRCLE
 5
BCC
 330
BF
 100
AcDbEntity
 100
AcDbCircle
 10
1769.406976
 20
2078.863982
 40
19.050000
 0
CIRCLE
 5
BCD
 330
BF
 100
AcDbEntity
 100
AcDbCircle
 10
1857.395156
 20
2078.863982
 40
19.050000
 0
CIRCLE
 5
BCE
 330
BF
 100
AcDbEntity
 100
AcDbCircle
 10
1945.383336
 20
2078.863982
 40
19.050000
 0
CIRCLE
 5
BCF
 330
BF
 100
AcDbEntity
 100
AcDbCircle
 10
2033.371516
 20
2078.863982
 40
19.050000
 0
CIRCLE
 5
BD0
 330
BF
 100
AcDbEntity
 100
AcDbCircle
 10
1329.466076
 20
2078.863982
 40
19.050000
 0
CIRCLE
 5
BD1
 330
BF
 100
AcDbEntity
 100
AcDbCircle
 10
1241.477896
 20
2078.863982
 40
19.050000
 0
CIRCLE
 5
BD2
 330
BF
 100
AcDbEntity
 100
AcDbCircle
 10
1153.489716
 20
2078.863982
 40
19.050000
 0
CIRCLE
 5
BD3
 330
BF
 100
AcDbEntity
 100
AcDbCircle
 10
1065.501536
 20
2078.863982
 40
19.050000
 0
CIRCLE
 5
BD4
 330
BF
 100
AcDbEntity
 100
AcDbCircle
 10
977.513356
 20
2078.863982
 40
19.050000
 0
CIRCLE
 5
BD5
 330
BF
 100
AcDbEntity
 100
AcDbCircle
 10
889.525176
 20
2078.863982
 40
19.050000
 0
CIRCLE
 5
BD6
 330
BF
 100
AcDbEntity
 100
AcDbCircle
 10
801.536996
 20
2078.863982
 40
19.050000
 0
CIRCLE
 5
BD7
 330
BF
 100
AcDbEntity
 100
AcDbCircle
 10
713.548816
 20
2078.863982
 40
19.050000
 0
CIRCLE
 5
BD8
 330
BF
 100
AcDbEntity
 100
AcDbCircle
 10
1373.460166
 20
2104.263982
 40
19.050000
 0
CIRCLE
 5
BD9
 330
BF
 100
AcDbEntity
 100
AcDbCircle
 10
1461.448346
 20
2104.263982
 40
19.050000
 0
CIRCLE
 5
BDA
 330
BF
 100
AcDbEntity
 100
AcDbCircle
 10
1549.436526
 20
2104.263982
 40
19.050000
 0
CIRCLE
 5
BDB
 330
BF
 100
AcDbEntity
 100
AcDbCircle
 10
1637.424706
 20
2104.263982
 40
19.050000
 0
CIRCLE
 5
BDC
 330
BF
 100
AcDbEntity
 100
AcDbCircle
 10
1725.412886
 20
2104.263982
 40
19.050000
 0
CIRCLE
 5
BDD
 330
BF
 100
AcDbEntity
 100
AcDbCircle
 10
1813.401066
 20
2104.263982
 40
19.050000
 0
CIRCLE
 5
BDE
 330
BF
 100
AcDbEntity
 100
AcDbCircle
 10
1901.389246
 20
2104.263982
 40
19.050000
 0
CIRCLE
 5
BDF
 330
BF
 100
AcDbEntity
 100
AcDbCircle
 10
1989.377426
 20
2104.263982
 40
19.050000
 0
CIRCLE
 5
BE0
 330
BF
 100
AcDbEntity
 100
AcDbCircle
 10
1285.471986
 20
2104.263982
 40
19.050000
 0
CIRCLE
 5
BE1
 330
BF
 100
AcDbEntity
 100
AcDbCircle
 10
1197.483806
 20
2104.263982
 40
19.050000
 0
CIRCLE
 5
BE2
 330
BF
 100
AcDbEntity
 100
AcDbCircle
 10
1109.495626
 20
2104.263982
 40
19.050000
 0
CIRCLE
 5
BE3
 330
BF
 100
AcDbEntity
 100
AcDbCircle
 10
1021.507446
 20
2104.263982
 40
19.050000
 0
CIRCLE
 5
BE4
 330
BF
 100
AcDbEntity
 100
AcDbCircle
 10
933.519266
 20
2104.263982
 40
19.050000
 0
CIRCLE
 5
BE5
 330
BF
 100
AcDbEntity
 100
AcDbCircle
 10
845.531086
 20
2104.263982
 40
19.050000
 0
CIRCLE
 5
BE6
 330
BF
 100
AcDbEntity
 100
AcDbCircle
 10
757.542906
 20
2104.263982
 40
19.050000
 0
CIRCLE
 5
BE7
 330
BF
 100
AcDbEntity
 100
AcDbCircle
 10
1417.454256
 20
2129.663982
 40
19.050000
 0
CIRCLE
 5
BE8
 330
BF
 100
AcDbEntity
 100
AcDbCircle
 10
1505.442436
 20
2129.663982
 40
19.050000
 0
CIRCLE
 5
BE9
 330
BF
 100
AcDbEntity
 100
AcDbCircle
 10
1593.430616
 20
2129.663982
 40
19.050000
 0
CIRCLE
 5
BEA
 330
BF
 100
AcDbEntity
 100
AcDbCircle
 10
1681.418796
 20
2129.663982
 40
19.050000
 0
CIRCLE
 5
BEB
 330
BF
 100
AcDbEntity
 100
AcDbCircle
 10
1769.406976
 20
2129.663982
 40
19.050000
 0
CIRCLE
 5
BEC
 330
BF
 100
AcDbEntity
 100
AcDbCircle
 10
1857.395156
 20
2129.663982
 40
19.050000
 0
CIRCLE
 5
BED
 330
BF
 100
AcDbEntity
 100
AcDbCircle
 10
1945.383336
 20
2129.663982
 40
19.050000
 0
CIRCLE
 5
BEE
 330
BF
 100
AcDbEntity
 100
AcDbCircle
 10
1329.466076
 20
2129.663982
 40
19.050000
 0
CIRCLE
 5
BEF
 330
BF
 100
AcDbEntity
 100
AcDbCircle
 10
1241.477896
 20
2129.663982
 40
19.050000
 0
CIRCLE
 5
BF0
 330
BF
 100
AcDbEntity
 100
AcDbCircle
 10
1153.489716
 20
2129.663982
 40
19.050000
 0
CIRCLE
 5
BF1
 330
BF
 100
AcDbEntity
 100
AcDbCircle
 10
1065.501536
 20
2129.663982
 40
19.050000
 0
CIRCLE
 5
BF2
 330
BF
 100
AcDbEntity
 100
AcDbCircle
 10
977.513356
 20
2129.663982
 40
19.050000
 0
CIRCLE
 5
BF3
 330
BF
 100
AcDbEntity
 100
AcDbCircle
 10
889.525176
 20
2129.663982
 40
19.050000
 0
CIRCLE
 5
BF4
 330
BF
 100
AcDbEntity
 100
AcDbCircle
 10
801.536996
 20
2129.663982
 40
19.050000
 0
CIRCLE
 5
BF5
 330
BF
 100
AcDbEntity
 100
AcDbCircle
 10
1373.460166
 20
2155.063981
 40
19.050000
 0
CIRCLE
 5
BF6
 330
BF
 100
AcDbEntity
 100
AcDbCircle
 10
1461.448346
 20
2155.063981
 40
19.050000
 0
CIRCLE
 5
BF7
 330
BF
 100
AcDbEntity
 100
AcDbCircle
 10
1549.436526
 20
2155.063981
 40
19.050000
 0
CIRCLE
 5
BF8
 330
BF
 100
AcDbEntity
 100
AcDbCircle
 10
1637.424706
 20
2155.063981
 40
19.050000
 0
CIRCLE
 5
BF9
 330
BF
 100
AcDbEntity
 100
AcDbCircle
 10
1725.412886
 20
2155.063981
 40
19.050000
 0
CIRCLE
 5
BFA
 330
BF
 100
AcDbEntity
 100
AcDbCircle
 10
1813.401066
 20
2155.063981
 40
19.050000
 0
CIRCLE
 5
BFB
 330
BF
 100
AcDbEntity
 100
AcDbCircle
 10
1901.389246
 20
2155.063981
 40
19.050000
 0
CIRCLE
 5
BFC
 330
BF
 100
AcDbEntity
 100
AcDbCircle
 10
1989.377426
 20
2155.063981
 40
19.050000
 0
CIRCLE
 5
BFD
 330
BF
 100
AcDbEntity
 100
AcDbCircle
 10
1285.471986
 20
2155.063981
 40
19.050000
 0
CIRCLE
 5
BFE
 330
BF
 100
AcDbEntity
 100
AcDbCircle
 10
1197.483806
 20
2155.063981
 40
19.050000
 0
CIRCLE
 5
BFF
 330
BF
 100
AcDbEntity
 100
AcDbCircle
 10
1109.495626
 20
2155.063981
 40
19.050000
 0
CIRCLE
 5
C00
 330
BF
 100
AcDbEntity
 100
AcDbCircle
 10
1021.507446
 20
2155.063981
 40
19.050000
 0
CIRCLE
 5
C01
 330
BF
 100
AcDbEntity
 100
AcDbCircle
 10
933.519266
 20
2155.063981
 40
19.050000
 0
CIRCLE
 5
C02
 330
BF
 100
AcDbEntity
 100
AcDbCircle
 10
845.531086
 20
2155.063981
 40
19.050000
 0
CIRCLE
 5
C03
 330
BF
 100
AcDbEntity
 100
AcDbCircle
 10
757.542906
 20
2155.063981
 40
19.050000
 0
CIRCLE
 5
C04
 330
BF
 100
AcDbEntity
 100
AcDbCircle
 10
1417.454256
 20
2180.463981
 40
19.050000
 0
CIRCLE
 5
C05
 330
BF
 100
AcDbEntity
 100
AcDbCircle
 10
1505.442436
 20
2180.463981
 40
19.050000
 0
CIRCLE
 5
C06
 330
BF
 100
AcDbEntity
 100
AcDbCircle
 10
1593.430616
 20
2180.463981
 40
19.050000
 0
CIRCLE
 5
C07
 330
BF
 100
AcDbEntity
 100
AcDbCircle
 10
1681.418796
 20
2180.463981
 40
19.050000
 0
CIRCLE
 5
C08
 330
BF
 100
AcDbEntity
 100
AcDbCircle
 10
1769.406976
 20
2180.463981
 40
19.050000
 0
CIRCLE
 5
C09
 330
BF
 100
AcDbEntity
 100
AcDbCircle
 10
1857.395156
 20
2180.463981
 40
19.050000
 0
CIRCLE
 5
C0A
 330
BF
 100
AcDbEntity
 100
AcDbCircle
 10
1945.383336
 20
2180.463981
 40
19.050000
 0
CIRCLE
 5
C0B
 330
BF
 100
AcDbEntity
 100
AcDbCircle
 10
1329.466076
 20
2180.463981
 40
19.050000
 0
CIRCLE
 5
C0C
 330
BF
 100
AcDbEntity
 100
AcDbCircle
 10
1241.477896
 20
2180.463981
 40
19.050000
 0
CIRCLE
 5
C0D
 330
BF
 100
AcDbEntity
 100
AcDbCircle
 10
1153.489716
 20
2180.463981
 40
19.050000
 0
CIRCLE
 5
C0E
 330
BF
 100
AcDbEntity
 100
AcDbCircle
 10
1065.501536
 20
2180.463981
 40
19.050000
 0
CIRCLE
 5
C0F
 330
BF
 100
AcDbEntity
 100
AcDbCircle
 10
977.513356
 20
2180.463981
 40
19.050000
 0
CIRCLE
 5
C10
 330
BF
 100
AcDbEntity
 100
AcDbCircle
 10
889.525176
 20
2180.463981
 40
19.050000
 0
CIRCLE
 5
C11
 330
BF
 100
AcDbEntity
 100
AcDbCircle
 10
801.536996
 20
2180.463981
 40
19.050000
 0
CIRCLE
 5
C12
 330
BF
 100
AcDbEntity
 100
AcDbCircle
 10
1373.460166
 20
2205.863981
 40
19.050000
 0
CIRCLE
 5
C13
 330
BF
 100
AcDbEntity
 100
AcDbCircle
 10
1461.448346
 20
2205.863981
 40
19.050000
 0
CIRCLE
 5
C14
 330
BF
 100
AcDbEntity
 100
AcDbCircle
 10
1549.436526
 20
2205.863981
 40
19.050000
 0
CIRCLE
 5
C15
 330
BF
 100
AcDbEntity
 100
AcDbCircle
 10
1637.424706
 20
2205.863981
 40
19.050000
 0
CIRCLE
 5
C16
 330
BF
 100
AcDbEntity
 100
AcDbCircle
 10
1725.412886
 20
2205.863981
 40
19.050000
 0
CIRCLE
 5
C17
 330
BF
 100
AcDbEntity
 100
AcDbCircle
 10
1813.401066
 20
2205.863981
 40
19.050000
 0
CIRCLE
 5
C18
 330
BF
 100
AcDbEntity
 100
AcDbCircle
 10
1901.389246
 20
2205.863981
 40
19.050000
 0
CIRCLE
 5
C19
 330
BF
 100
AcDbEntity
 100
AcDbCircle
 10
1285.471986
 20
2205.863981
 40
19.050000
 0
CIRCLE
 5
C1A
 330
BF
 100
AcDbEntity
 100
AcDbCircle
 10
1197.483806
 20
2205.863981
 40
19.050000
 0
CIRCLE
 5
C1B
 330
BF
 100
AcDbEntity
 100
AcDbCircle
 10
1109.495626
 20
2205.863981
 40
19.050000
 0
CIRCLE
 5
C1C
 330
BF
 100
AcDbEntity
 100
AcDbCircle
 10
1021.507446
 20
2205.863981
 40
19.050000
 0
CIRCLE
 5
C1D
 330
BF
 100
AcDbEntity
 100
AcDbCircle
 10
933.519266
 20
2205.863981
 40
19.050000
 0
CIRCLE
 5
C1E
 330
BF
 100
AcDbEntity
 100
AcDbCircle
 10
845.531086
 20
2205.863981
 40
19.050000
 0
CIRCLE
 5
C1F
 330
BF
 100
AcDbEntity
 100
AcDbCircle
 10
1417.454256
 20
2231.263980
 40
19.050000
 0
CIRCLE
 5
C20
 330
BF
 100
AcDbEntity
 100
AcDbCircle
 10
1505.442436
 20
2231.263980
 40
19.050000
 0
CIRCLE
 5
C21
 330
BF
 100
AcDbEntity
 100
AcDbCircle
 10
1593.430616
 20
2231.263980
 40
19.050000
 0
CIRCLE
 5
C22
 330
BF
 100
AcDbEntity
 100
AcDbCircle
 10
1681.418796
 20
2231.263980
 40
19.050000
 0
CIRCLE
 5
C23
 330
BF
 100
AcDbEntity
 100
AcDbCircle
 10
1769.406976
 20
2231.263980
 40
19.050000
 0
CIRCLE
 5
C24
 330
BF
 100
AcDbEntity
 100
AcDbCircle
 10
1857.395156
 20
2231.263980
 40
19.050000
 0
CIRCLE
 5
C25
 330
BF
 100
AcDbEntity
 100
AcDbCircle
 10
1329.466076
 20
2231.263980
 40
19.050000
 0
CIRCLE
 5
C26
 330
BF
 100
AcDbEntity
 100
AcDbCircle
 10
1241.477896
 20
2231.263980
 40
19.050000
 0
CIRCLE
 5
C27
 330
BF
 100
AcDbEntity
 100
AcDbCircle
 10
1153.489716
 20
2231.263980
 40
19.050000
 0
CIRCLE
 5
C28
 330
BF
 100
AcDbEntity
 100
AcDbCircle
 10
1065.501536
 20
2231.263980
 40
19.050000
 0
CIRCLE
 5
C29
 330
BF
 100
AcDbEntity
 100
AcDbCircle
 10
977.513356
 20
2231.263980
 40
19.050000
 0
CIRCLE
 5
C2A
 330
BF
 100
AcDbEntity
 100
AcDbCircle
 10
889.525176
 20
2231.263980
 40
19.050000
 0
CIRCLE
 5
C2B
 330
BF
 100
AcDbEntity
 100
AcDbCircle
 10
1373.460166
 20
2256.663980
 40
19.050000
 0
CIRCLE
 5
C2C
 330
BF
 100
AcDbEntity
 100
AcDbCircle
 10
1461.448346
 20
2256.663980
 40
19.050000
 0
CIRCLE
 5
C2D
 330
BF
 100
AcDbEntity
 100
AcDbCircle
 10
1549.436526
 20
2256.663980
 40
19.050000
 0
CIRCLE
 5
C2E
 330
BF
 100
AcDbEntity
 100
AcDbCircle
 10
1637.424706
 20
2256.663980
 40
19.050000
 0
CIRCLE
 5
C2F
 330
BF
 100
AcDbEntity
 100
AcDbCircle
 10
1725.412886
 20
2256.663980
 40
19.050000
 0
CIRCLE
 5
C30
 330
BF
 100
AcDbEntity
 100
AcDbCircle
 10
1813.401066
 20
2256.663980
 40
19.050000
 0
CIRCLE
 5
C31
 330
BF
 100
AcDbEntity
 100
AcDbCircle
 10
1285.471986
 20
2256.663980
 40
19.050000
 0
CIRCLE
 5
C32
 330
BF
 100
AcDbEntity
 100
AcDbCircle
 10
1197.483806
 20
2256.663980
 40
19.050000
 0
CIRCLE
 5
C33
 330
BF
 100
AcDbEntity
 100
AcDbCircle
 10
1109.495626
 20
2256.663980
 40
19.050000
 0
CIRCLE
 5
C34
 330
BF
 100
AcDbEntity
 100
AcDbCircle
 10
1021.507446
 20
2256.663980
 40
19.050000
 0
CIRCLE
 5
C35
 330
BF
 100
AcDbEntity
 100
AcDbCircle
 10
933.519266
 20
2256.663980
 40
19.050000
 0
CIRCLE
 5
C36
 330
BF
 100
AcDbEntity
 100
AcDbCircle
 10
1417.454256
 20
2282.063980
 40
19.050000
 0
CIRCLE
 5
C37
 330
BF
 100
AcDbEntity
 100
AcDbCircle
 10
1505.442436
 20
2282.063980
 40
19.050000
 0
CIRCLE
 5
C38
 330
BF
 100
AcDbEntity
 100
AcDbCircle
 10
1593.430616
 20
2282.063980
 40
19.050000
 0
CIRCLE
 5
C39
 330
BF
 100
AcDbEntity
 100
AcDbCircle
 10
1681.418796
 20
2282.063980
 40
19.050000
 0
CIRCLE
 5
C3A
 330
BF
 100
AcDbEntity
 100
AcDbCircle
 10
1769.406976
 20
2282.063980
 40
19.050000
 0
CIRCLE
 5
C3B
 330
BF
 100
AcDbEntity
 100
AcDbCircle
 10
1329.466076
 20
2282.063980
 40
19.050000
 0
CIRCLE
 5
C3C
 330
BF
 100
AcDbEntity
 100
AcDbCircle
 10
1241.477896
 20
2282.063980
 40
19.050000
 0
CIRCLE
 5
C3D
 330
BF
 100
AcDbEntity
 100
AcDbCircle
 10
1153.489716
 20
2282.063980
 40
19.050000
 0
CIRCLE
 5
C3E
 330
BF
 100
AcDbEntity
 100
AcDbCircle
 10
1065.501536
 20
2282.063980
 40
19.050000
 0
CIRCLE
 5
C3F
 330
BF
 100
AcDbEntity
 100
AcDbCircle
 10
977.513356
 20
2282.063980
 40
19.050000
 0
CIRCLE
 5
C40
 330
BF
 100
AcDbEntity
 100
AcDbCircle
 10
1373.460166
 20
2307.463979
 40
19.050000
 0
CIRCLE
 5
C41
 330
BF
 100
AcDbEntity
 100
AcDbCircle
 10
1461.448346
 20
2307.463979
 40
19.050000
 0
CIRCLE
 5
C42
 330
BF
 100
AcDbEntity
 100
AcDbCircle
 10
1549.436526
 20
2307.463979
 40
19.050000
 0
CIRCLE
 5
C43
 330
BF
 100
AcDbEntity
 100
AcDbCircle
 10
1637.424706
 20
2307.463979
 40
19.050000
 0
CIRCLE
 5
C44
 330
BF
 100
AcDbEntity
 100
AcDbCircle
 10
1725.412886
 20
2307.463979
 40
19.050000
 0
CIRCLE
 5
C45
 330
BF
 100
AcDbEntity
 100
AcDbCircle
 10
1285.471986
 20
2307.463979
 40
19.050000
 0
CIRCLE
 5
C46
 330
BF
 100
AcDbEntity
 100
AcDbCircle
 10
1197.483806
 20
2307.463979
 40
19.050000
 0
CIRCLE
 5
C47
 330
BF
 100
AcDbEntity
 100
AcDbCircle
 10
1109.495626
 20
2307.463979
 40
19.050000
 0
CIRCLE
 5
C48
 330
BF
 100
AcDbEntity
 100
AcDbCircle
 10
1021.507446
 20
2307.463979
 40
19.050000
 0
CIRCLE
 5
C49
 330
BF
 100
AcDbEntity
 100
AcDbCircle
 10
1417.454256
 20
2332.863979
 40
19.050000
 0
CIRCLE
 5
C4A
 330
BF
 100
AcDbEntity
 100
AcDbCircle
 10
1505.442436
 20
2332.863979
 40
19.050000
 0
CIRCLE
 5
C4B
 330
BF
 100
AcDbEntity
 100
AcDbCircle
 10
1593.430616
 20
2332.863979
 40
19.050000
 0
CIRCLE
 5
C4C
 330
BF
 100
AcDbEntity
 100
AcDbCircle
 10
1681.418796
 20
2332.863979
 40
19.050000
 0
CIRCLE
 5
C4D
 330
BF
 100
AcDbEntity
 100
AcDbCircle
 10
1329.466076
 20
2332.863979
 40
19.050000
 0
CIRCLE
 5
C4E
 330
BF
 100
AcDbEntity
 100
AcDbCircle
 10
1241.477896
 20
2332.863979
 40
19.050000
 0
CIRCLE
 5
C4F
 330
BF
 100
AcDbEntity
 100
AcDbCircle
 10
1153.489716
 20
2332.863979
 40
19.050000
 0
CIRCLE
 5
C50
 330
BF
 100
AcDbEntity
 100
AcDbCircle
 10
1065.501536
 20
2332.863979
 40
19.050000
 0
CIRCLE
 5
C51
 330
BF
 100
AcDbEntity
 100
AcDbCircle
 10
1373.460166
 20
2358.263979
 40
19.050000
 0
CIRCLE
 5
C52
 330
BF
 100
AcDbEntity
 100
AcDbCircle
 10
1461.448346
 20
2358.263979
 40
19.050000
 0
CIRCLE
 5
C53
 330
BF
 100
AcDbEntity
 100
AcDbCircle
 10
1549.436526
 20
2358.263979
 40
19.050000
 0
CIRCLE
 5
C54
 330
BF
 100
AcDbEntity
 100
AcDbCircle
 10
1637.424706
 20
2358.263979
 40
19.050000
 0
CIRCLE
 5
C55
 330
BF
 100
AcDbEntity
 100
AcDbCircle
 10
1285.471986
 20
2358.263979
 40
19.050000
 0
CIRCLE
 5
C56
 330
BF
 100
AcDbEntity
 100
AcDbCircle
 10
1197.483806
 20
2358.263979
 40
19.050000
 0
CIRCLE
 5
C57
 330
BF
 100
AcDbEntity
 100
AcDbCircle
 10
1109.495626
 20
2358.263979
 40
19.050000
 0
CIRCLE
 5
C58
 330
BF
 100
AcDbEntity
 100
AcDbCircle
 10
1417.454256
 20
2383.663979
 40
19.050000
 0
CIRCLE
 5
C59
 330
BF
 100
AcDbEntity
 100
AcDbCircle
 10
1505.442436
 20
2383.663979
 40
19.050000
 0
CIRCLE
 5
C5A
 330
BF
 100
AcDbEntity
 100
AcDbCircle
 10
1593.430616
 20
2383.663979
 40
19.050000
 0
CIRCLE
 5
C5B
 330
BF
 100
AcDbEntity
 100
AcDbCircle
 10
1329.466076
 20
2383.663979
 40
19.050000
 0
CIRCLE
 5
C5C
 330
BF
 100
AcDbEntity
 100
AcDbCircle
 10
1241.477896
 20
2383.663979
 40
19.050000
 0
CIRCLE
 5
C5D
 330
BF
 100
AcDbEntity
 100
AcDbCircle
 10
1153.489716
 20
2383.663979
 40
19.050000
 0
CIRCLE
 5
C5E
 330
BF
 100
AcDbEntity
 100
AcDbCircle
 10
1373.460166
 20
2409.063978
 40
19.050000
 0
CIRCLE
 5
C5F
 330
BF
 100
AcDbEntity
 100
AcDbCircle
 10
1461.448346
 20
2409.063978
 40
19.050000
 0
CIRCLE
 5
C60
 330
BF
 100
AcDbEntity
 100
AcDbCircle
 10
1549.436526
 20
2409.063978
 40
19.050000
 0
CIRCLE
 5
C61
 330
BF
 100
AcDbEntity
 100
AcDbCircle
 10
1285.471986
 20
2409.063978
 40
19.050000
 0
CIRCLE
 5
C62
 330
BF
 100
AcDbEntity
 100
AcDbCircle
 10
1197.483806
 20
2409.063978
 40
19.050000
 0
CIRCLE
 5
C63
 330
BF
 100
AcDbEntity
 100
AcDbCircle
 10
1681.418796
 20
1570.863988
 40
19.050000
 0
CIRCLE
 5
C64
 330
BF
 100
AcDbEntity
 100
AcDbCircle
 10
1769.406976
 20
1570.863988
 40
19.050000
 0
CIRCLE
 5
C65
 330
BF
 100
AcDbEntity
 100
AcDbCircle
 10
1857.395156
 20
1570.863988
 40
19.050000
 0
CIRCLE
 5
C66
 330
BF
 100
AcDbEntity
 100
AcDbCircle
 10
1945.383336
 20
1570.863988
 40
19.050000
 0
CIRCLE
 5
C67
 330
BF
 100
AcDbEntity
 100
AcDbCircle
 10
2033.371516
 20
1570.863988
 40
19.050000
 0
CIRCLE
 5
C68
 330
BF
 100
AcDbEntity
 100
AcDbCircle
 10
2121.359696
 20
1570.863988
 40
19.050000
 0
CIRCLE
 5
C69
 330
BF
 100
AcDbEntity
 100
AcDbCircle
 10
2209.347876
 20
1570.863988
 40
19.050000
 0
CIRCLE
 5
C6A
 330
BF
 100
AcDbEntity
 100
AcDbCircle
 10
1065.501536
 20
1570.863988
 40
19.050000
 0
CIRCLE
 5
C6B
 330
BF
 100
AcDbEntity
 100
AcDbCircle
 10
977.513356
 20
1570.863988
 40
19.050000
 0
CIRCLE
 5
C6C
 330
BF
 100
AcDbEntity
 100
AcDbCircle
 10
889.525176
 20
1570.863988
 40
19.050000
 0
CIRCLE
 5
C6D
 330
BF
 100
AcDbEntity
 100
AcDbCircle
 10
801.536996
 20
1570.863988
 40
19.050000
 0
CIRCLE
 5
C6E
 330
BF
 100
AcDbEntity
 100
AcDbCircle
 10
713.548816
 20
1570.863988
 40
19.050000
 0
CIRCLE
 5
C6F
 330
BF
 100
AcDbEntity
 100
AcDbCircle
 10
625.560636
 20
1570.863988
 40
19.050000
 0
CIRCLE
 5
C70
 330
BF
 100
AcDbEntity
 100
AcDbCircle
 10
537.572456
 20
1570.863988
 40
19.050000
 0
CIRCLE
 5
C71
 330
BF
 100
AcDbEntity
 100
AcDbCircle
 10
1725.412886
 20
1545.463988
 40
19.050000
 0
CIRCLE
 5
C72
 330
BF
 100
AcDbEntity
 100
AcDbCircle
 10
1813.401066
 20
1545.463988
 40
19.050000
 0
CIRCLE
 5
C73
 330
BF
 100
AcDbEntity
 100
AcDbCircle
 10
1901.389246
 20
1545.463988
 40
19.050000
 0
CIRCLE
 5
C74
 330
BF
 100
AcDbEntity
 100
AcDbCircle
 10
1989.377426
 20
1545.463988
 40
19.050000
 0
CIRCLE
 5
C75
 330
BF
 100
AcDbEntity
 100
AcDbCircle
 10
2077.365606
 20
1545.463988
 40
19.050000
 0
CIRCLE
 5
C76
 330
BF
 100
AcDbEntity
 100
AcDbCircle
 10
2165.353786
 20
1545.463988
 40
19.050000
 0
CIRCLE
 5
C77
 330
BF
 100
AcDbEntity
 100
AcDbCircle
 10
1021.507446
 20
1545.463988
 40
19.050000
 0
CIRCLE
 5
C78
 330
BF
 100
AcDbEntity
 100
AcDbCircle
 10
933.519266
 20
1545.463988
 40
19.050000
 0
CIRCLE
 5
C79
 330
BF
 100
AcDbEntity
 100
AcDbCircle
 10
845.531086
 20
1545.463988
 40
19.050000
 0
CIRCLE
 5
C7A
 330
BF
 100
AcDbEntity
 100
AcDbCircle
 10
757.542906
 20
1545.463988
 40
19.050000
 0
CIRCLE
 5
C7B
 330
BF
 100
AcDbEntity
 100
AcDbCircle
 10
669.554726
 20
1545.463988
 40
19.050000
 0
CIRCLE
 5
C7C
 330
BF
 100
AcDbEntity
 100
AcDbCircle
 10
581.566546
 20
1545.463988
 40
19.050000
 0
CIRCLE
 5
C7D
 330
BF
 100
AcDbEntity
 100
AcDbCircle
 10
1681.418796
 20
1520.063989
 40
19.050000
 0
CIRCLE
 5
C7E
 330
BF
 100
AcDbEntity
 100
AcDbCircle
 10
1769.406976
 20
1520.063989
 40
19.050000
 0
CIRCLE
 5
C7F
 330
BF
 100
AcDbEntity
 100
AcDbCircle
 10
1857.395156
 20
1520.063989
 40
19.050000
 0
CIRCLE
 5
C80
 330
BF
 100
AcDbEntity
 100
AcDbCircle
 10
1945.383336
 20
1520.063989
 40
19.050000
 0
CIRCLE
 5
C81
 330
BF
 100
AcDbEntity
 100
AcDbCircle
 10
2033.371516
 20
1520.063989
 40
19.050000
 0
CIRCLE
 5
C82
 330
BF
 100
AcDbEntity
 100
AcDbCircle
 10
2121.359696
 20
1520.063989
 40
19.050000
 0
CIRCLE
 5
C83
 330
BF
 100
AcDbEntity
 100
AcDbCircle
 10
1065.501536
 20
1520.063989
 40
19.050000
 0
CIRCLE
 5
C84
 330
BF
 100
AcDbEntity
 100
AcDbCircle
 10
977.513356
 20
1520.063989
 40
19.050000
 0
CIRCLE
 5
C85
 330
BF
 100
AcDbEntity
 100
AcDbCircle
 10
889.525176
 20
1520.063989
 40
19.050000
 0
CIRCLE
 5
C86
 330
BF
 100
AcDbEntity
 100
AcDbCircle
 10
801.536996
 20
1520.063989
 40
19.050000
 0
CIRCLE
 5
C87
 330
BF
 100
AcDbEntity
 100
AcDbCircle
 10
713.548816
 20
1520.063989
 40
19.050000
 0
CIRCLE
 5
C88
 330
BF
 100
AcDbEntity
 100
AcDbCircle
 10
625.560636
 20
1520.063989
 40
19.050000
 0
CIRCLE
 5
C89
 330
BF
 100
AcDbEntity
 100
AcDbCircle
 10
1725.412886
 20
1494.663989
 40
19.050000
 0
CIRCLE
 5
C8A
 330
BF
 100
AcDbEntity
 100
AcDbCircle
 10
1813.401066
 20
1494.663989
 40
19.050000
 0
CIRCLE
 5
C8B
 330
BF
 100
AcDbEntity
 100
AcDbCircle
 10
1901.389246
 20
1494.663989
 40
19.050000
 0
CIRCLE
 5
C8C
 330
BF
 100
AcDbEntity
 100
AcDbCircle
 10
1989.377426
 20
1494.663989
 40
19.050000
 0
CIRCLE
 5
C8D
 330
BF
 100
AcDbEntity
 100
AcDbCircle
 10
2077.365606
 20
1494.663989
 40
19.050000
 0
CIRCLE
 5
C8E
 330
BF
 100
AcDbEntity
 100
AcDbCircle
 10
2165.353786
 20
1494.663989
 40
19.050000
 0
CIRCLE
 5
C8F
 330
BF
 100
AcDbEntity
 100
AcDbCircle
 10
1021.507446
 20
1494.663989
 40
19.050000
 0
CIRCLE
 5
C90
 330
BF
 100
AcDbEntity
 100
AcDbCircle
 10
933.519266
 20
1494.663989
 40
19.050000
 0
CIRCLE
 5
C91
 330
BF
 100
AcDbEntity
 100
AcDbCircle
 10
845.531086
 20
1494.663989
 40
19.050000
 0
CIRCLE
 5
C92
 330
BF
 100
AcDbEntity
 100
AcDbCircle
 10
757.542906
 20
1494.663989
 40
19.050000
 0
CIRCLE
 5
C93
 330
BF
 100
AcDbEntity
 100
AcDbCircle
 10
669.554726
 20
1494.663989
 40
19.050000
 0
CIRCLE
 5
C94
 330
BF
 100
AcDbEntity
 100
AcDbCircle
 10
581.566546
 20
1494.663989
 40
19.050000
 0
CIRCLE
 5
C95
 330
BF
 100
AcDbEntity
 100
AcDbCircle
 10
1681.418796
 20
1469.263989
 40
19.050000
 0
CIRCLE
 5
C96
 330
BF
 100
AcDbEntity
 100
AcDbCircle
 10
1769.406976
 20
1469.263989
 40
19.050000
 0
CIRCLE
 5
C97
 330
BF
 100
AcDbEntity
 100
AcDbCircle
 10
1857.395156
 20
1469.263989
 40
19.050000
 0
CIRCLE
 5
C98
 330
BF
 100
AcDbEntity
 100
AcDbCircle
 10
1945.383336
 20
1469.263989
 40
19.050000
 0
CIRCLE
 5
C99
 330
BF
 100
AcDbEntity
 100
AcDbCircle
 10
2033.371516
 20
1469.263989
 40
19.050000
 0
CIRCLE
 5
C9A
 330
BF
 100
AcDbEntity
 100
AcDbCircle
 10
2121.359696
 20
1469.263989
 40
19.050000
 0
CIRCLE
 5
C9B
 330
BF
 100
AcDbEntity
 100
AcDbCircle
 10
1065.501536
 20
1469.263989
 40
19.050000
 0
CIRCLE
 5
C9C
 330
BF
 100
AcDbEntity
 100
AcDbCircle
 10
977.513356
 20
1469.263989
 40
19.050000
 0
CIRCLE
 5
C9D
 330
BF
 100
AcDbEntity
 100
AcDbCircle
 10
889.525176
 20
1469.263989
 40
19.050000
 0
CIRCLE
 5
C9E
 330
BF
 100
AcDbEntity
 100
AcDbCircle
 10
801.536996
 20
1469.263989
 40
19.050000
 0
CIRCLE
 5
C9F
 330
BF
 100
AcDbEntity
 100
AcDbCircle
 10
713.548816
 20
1469.263989
 40
19.050000
 0
CIRCLE
 5
CA0
 330
BF
 100
AcDbEntity
 100
AcDbCircle
 10
625.560636
 20
1469.263989
 40
19.050000
 0
CIRCLE
 5
CA1
 330
BF
 100
AcDbEntity
 100
AcDbCircle
 10
1637.424706
 20
1443.863990
 40
19.050000
 0
CIRCLE
 5
CA2
 330
BF
 100
AcDbEntity
 100
AcDbCircle
 10
1725.412886
 20
1443.863990
 40
19.050000
 0
CIRCLE
 5
CA3
 330
BF
 100
AcDbEntity
 100
AcDbCircle
 10
1813.401066
 20
1443.863990
 40
19.050000
 0
CIRCLE
 5
CA4
 330
BF
 100
AcDbEntity
 100
AcDbCircle
 10
1901.389246
 20
1443.863990
 40
19.050000
 0
CIRCLE
 5
CA5
 330
BF
 100
AcDbEntity
 100
AcDbCircle
 10
1989.377426
 20
1443.863990
 40
19.050000
 0
CIRCLE
 5
CA6
 330
BF
 100
AcDbEntity
 100
AcDbCircle
 10
2077.365606
 20
1443.863990
 40
19.050000
 0
CIRCLE
 5
CA7
 330
BF
 100
AcDbEntity
 100
AcDbCircle
 10
2165.353786
 20
1443.863990
 40
19.050000
 0
CIRCLE
 5
CA8
 330
BF
 100
AcDbEntity
 100
AcDbCircle
 10
1109.495626
 20
1443.863990
 40
19.050000
 0
CIRCLE
 5
CA9
 330
BF
 100
AcDbEntity
 100
AcDbCircle
 10
1021.507446
 20
1443.863990
 40
19.050000
 0
CIRCLE
 5
CAA
 330
BF
 100
AcDbEntity
 100
AcDbCircle
 10
933.519266
 20
1443.863990
 40
19.050000
 0
CIRCLE
 5
CAB
 330
BF
 100
AcDbEntity
 100
AcDbCircle
 10
845.531086
 20
1443.863990
 40
19.050000
 0
CIRCLE
 5
CAC
 330
BF
 100
AcDbEntity
 100
AcDbCircle
 10
757.542906
 20
1443.863990
 40
19.050000
 0
CIRCLE
 5
CAD
 330
BF
 100
AcDbEntity
 100
AcDbCircle
 10
669.554726
 20
1443.863990
 40
19.050000
 0
CIRCLE
 5
CAE
 330
BF
 100
AcDbEntity
 100
AcDbCircle
 10
581.566546
 20
1443.863990
 40
19.050000
 0
CIRCLE
 5
CAF
 330
BF
 100
AcDbEntity
 100
AcDbCircle
 10
1681.418796
 20
1418.463990
 40
19.050000
 0
CIRCLE
 5
CB0
 330
BF
 100
AcDbEntity
 100
AcDbCircle
 10
1769.406976
 20
1418.463990
 40
19.050000
 0
CIRCLE
 5
CB1
 330
BF
 100
AcDbEntity
 100
AcDbCircle
 10
1857.395156
 20
1418.463990
 40
19.050000
 0
CIRCLE
 5
CB2
 330
BF
 100
AcDbEntity
 100
AcDbCircle
 10
1945.383336
 20
1418.463990
 40
19.050000
 0
CIRCLE
 5
CB3
 330
BF
 100
AcDbEntity
 100
AcDbCircle
 10
2033.371516
 20
1418.463990
 40
19.050000
 0
CIRCLE
 5
CB4
 330
BF
 100
AcDbEntity
 100
AcDbCircle
 10
2121.359696
 20
1418.463990
 40
19.050000
 0
CIRCLE
 5
CB5
 330
BF
 100
AcDbEntity
 100
AcDbCircle
 10
1065.501536
 20
1418.463990
 40
19.050000
 0
CIRCLE
 5
CB6
 330
BF
 100
AcDbEntity
 100
AcDbCircle
 10
977.513356
 20
1418.463990
 40
19.050000
 0
CIRCLE
 5
CB7
 330
BF
 100
AcDbEntity
 100
AcDbCircle
 10
889.525176
 20
1418.463990
 40
19.050000
 0
CIRCLE
 5
CB8
 330
BF
 100
AcDbEntity
 100
AcDbCircle
 10
801.536996
 20
1418.463990
 40
19.050000
 0
CIRCLE
 5
CB9
 330
BF
 100
AcDbEntity
 100
AcDbCircle
 10
713.548816
 20
1418.463990
 40
19.050000
 0
CIRCLE
 5
CBA
 330
BF
 100
AcDbEntity
 100
AcDbCircle
 10
625.560636
 20
1418.463990
 40
19.050000
 0
CIRCLE
 5
CBB
 330
BF
 100
AcDbEntity
 100
AcDbCircle
 10
1637.424706
 20
1393.063990
 40
19.050000
 0
CIRCLE
 5
CBC
 330
BF
 100
AcDbEntity
 100
AcDbCircle
 10
1725.412886
 20
1393.063990
 40
19.050000
 0
CIRCLE
 5
CBD
 330
BF
 100
AcDbEntity
 100
AcDbCircle
 10
1813.401066
 20
1393.063990
 40
19.050000
 0
CIRCLE
 5
CBE
 330
BF
 100
AcDbEntity
 100
AcDbCircle
 10
1901.389246
 20
1393.063990
 40
19.050000
 0
CIRCLE
 5
CBF
 330
BF
 100
AcDbEntity
 100
AcDbCircle
 10
1989.377426
 20
1393.063990
 40
19.050000
 0
CIRCLE
 5
CC0
 330
BF
 100
AcDbEntity
 100
AcDbCircle
 10
2077.365606
 20
1393.063990
 40
19.050000
 0
CIRCLE
 5
CC1
 330
BF
 100
AcDbEntity
 100
AcDbCircle
 10
2165.353786
 20
1393.063990
 40
19.050000
 0
CIRCLE
 5
CC2
 330
BF
 100
AcDbEntity
 100
AcDbCircle
 10
1109.495626
 20
1393.063990
 40
19.050000
 0
CIRCLE
 5
CC3
 330
BF
 100
AcDbEntity
 100
AcDbCircle
 10
1021.507446
 20
1393.063990
 40
19.050000
 0
CIRCLE
 5
CC4
 330
BF
 100
AcDbEntity
 100
AcDbCircle
 10
933.519266
 20
1393.063990
 40
19.050000
 0
CIRCLE
 5
CC5
 330
BF
 100
AcDbEntity
 100
AcDbCircle
 10
845.531086
 20
1393.063990
 40
19.050000
 0
CIRCLE
 5
CC6
 330
BF
 100
AcDbEntity
 100
AcDbCircle
 10
757.542906
 20
1393.063990
 40
19.050000
 0
CIRCLE
 5
CC7
 330
BF
 100
AcDbEntity
 100
AcDbCircle
 10
669.554726
 20
1393.063990
 40
19.050000
 0
CIRCLE
 5
CC8
 330
BF
 100
AcDbEntity
 100
AcDbCircle
 10
581.566546
 20
1393.063990
 40
19.050000
 0
CIRCLE
 5
CC9
 330
BF
 100
AcDbEntity
 100
AcDbCircle
 10
1593.430616
 20
1367.663991
 40
19.050000
 0
CIRCLE
 5
CCA
 330
BF
 100
AcDbEntity
 100
AcDbCircle
 10
1681.418796
 20
1367.663991
 40
19.050000
 0
CIRCLE
 5
CCB
 330
BF
 100
AcDbEntity
 100
AcDbCircle
 10
1769.406976
 20
1367.663991
 40
19.050000
 0
CIRCLE
 5
CCC
 330
BF
 100
AcDbEntity
 100
AcDbCircle
 10
1857.395156
 20
1367.663991
 40
19.050000
 0
CIRCLE
 5
CCD
 330
BF
 100
AcDbEntity
 100
AcDbCircle
 10
1945.383336
 20
1367.663991
 40
19.050000
 0
CIRCLE
 5
CCE
 330
BF
 100
AcDbEntity
 100
AcDbCircle
 10
2033.371516
 20
1367.663991
 40
19.050000
 0
CIRCLE
 5
CCF
 330
BF
 100
AcDbEntity
 100
AcDbCircle
 10
2121.359696
 20
1367.663991
 40
19.050000
 0
CIRCLE
 5
CD0
 330
BF
 100
AcDbEntity
 100
AcDbCircle
 10
1153.489716
 20
1367.663991
 40
19.050000
 0
CIRCLE
 5
CD1
 330
BF
 100
AcDbEntity
 100
AcDbCircle
 10
1065.501536
 20
1367.663991
 40
19.050000
 0
CIRCLE
 5
CD2
 330
BF
 100
AcDbEntity
 100
AcDbCircle
 10
977.513356
 20
1367.663991
 40
19.050000
 0
CIRCLE
 5
CD3
 330
BF
 100
AcDbEntity
 100
AcDbCircle
 10
889.525176
 20
1367.663991
 40
19.050000
 0
CIRCLE
 5
CD4
 330
BF
 100
AcDbEntity
 100
AcDbCircle
 10
801.536996
 20
1367.663991
 40
19.050000
 0
CIRCLE
 5
CD5
 330
BF
 100
AcDbEntity
 100
AcDbCircle
 10
713.548816
 20
1367.663991
 40
19.050000
 0
CIRCLE
 5
CD6
 330
BF
 100
AcDbEntity
 100
AcDbCircle
 10
625.560636
 20
1367.663991
 40
19.050000
 0
CIRCLE
 5
CD7
 330
BF
 100
AcDbEntity
 100
AcDbCircle
 10
1549.436526
 20
1342.263991
 40
19.050000
 0
CIRCLE
 5
CD8
 330
BF
 100
AcDbEntity
 100
AcDbCircle
 10
1637.424706
 20
1342.263991
 40
19.050000
 0
CIRCLE
 5
CD9
 330
BF
 100
AcDbEntity
 100
AcDbCircle
 10
1725.412886
 20
1342.263991
 40
19.050000
 0
CIRCLE
 5
CDA
 330
BF
 100
AcDbEntity
 100
AcDbCircle
 10
1813.401066
 20
1342.263991
 40
19.050000
 0
CIRCLE
 5
CDB
 330
BF
 100
AcDbEntity
 100
AcDbCircle
 10
1901.389246
 20
1342.263991
 40
19.050000
 0
CIRCLE
 5
CDC
 330
BF
 100
AcDbEntity
 100
AcDbCircle
 10
1989.377426
 20
1342.263991
 40
19.050000
 0
CIRCLE
 5
CDD
 330
BF
 100
AcDbEntity
 100
AcDbCircle
 10
2077.365606
 20
1342.263991
 40
19.050000
 0
CIRCLE
 5
CDE
 330
BF
 100
AcDbEntity
 100
AcDbCircle
 10
2165.353786
 20
1342.263991
 40
19.050000
 0
CIRCLE
 5
CDF
 330
BF
 100
AcDbEntity
 100
AcDbCircle
 10
1197.483806
 20
1342.263991
 40
19.050000
 0
CIRCLE
 5
CE0
 330
BF
 100
AcDbEntity
 100
AcDbCircle
 10
1109.495626
 20
1342.263991
 40
19.050000
 0
CIRCLE
 5
CE1
 330
BF
 100
AcDbEntity
 100
AcDbCircle
 10
1021.507446
 20
1342.263991
 40
19.050000
 0
CIRCLE
 5
CE2
 330
BF
 100
AcDbEntity
 100
AcDbCircle
 10
933.519266
 20
1342.263991
 40
19.050000
 0
CIRCLE
 5
CE3
 330
BF
 100
AcDbEntity
 100
AcDbCircle
 10
845.531086
 20
1342.263991
 40
19.050000
 0
CIRCLE
 5
CE4
 330
BF
 100
AcDbEntity
 100
AcDbCircle
 10
757.542906
 20
1342.263991
 40
19.050000
 0
CIRCLE
 5
CE5
 330
BF
 100
AcDbEntity
 100
AcDbCircle
 10
669.554726
 20
1342.263991
 40
19.050000
 0
CIRCLE
 5
CE6
 330
BF
 100
AcDbEntity
 100
AcDbCircle
 10
581.566546
 20
1342.263991
 40
19.050000
 0
CIRCLE
 5
CE7
 330
BF
 100
AcDbEntity
 100
AcDbCircle
 10
1505.442436
 20
1316.863991
 40
19.050000
 0
CIRCLE
 5
CE8
 330
BF
 100
AcDbEntity
 100
AcDbCircle
 10
1593.430616
 20
1316.863991
 40
19.050000
 0
CIRCLE
 5
CE9
 330
BF
 100
AcDbEntity
 100
AcDbCircle
 10
1681.418796
 20
1316.863991
 40
19.050000
 0
CIRCLE
 5
CEA
 330
BF
 100
AcDbEntity
 100
AcDbCircle
 10
1769.406976
 20
1316.863991
 40
19.050000
 0
CIRCLE
 5
CEB
 330
BF
 100
AcDbEntity
 100
AcDbCircle
 10
1857.395156
 20
1316.863991
 40
19.050000
 0
CIRCLE
 5
CEC
 330
BF
 100
AcDbEntity
 100
AcDbCircle
 10
1945.383336
 20
1316.863991
 40
19.050000
 0
CIRCLE
 5
CED
 330
BF
 100
AcDbEntity
 100
AcDbCircle
 10
2033.371516
 20
1316.863991
 40
19.050000
 0
CIRCLE
 5
CEE
 330
BF
 100
AcDbEntity
 100
AcDbCircle
 10
2121.359696
 20
1316.863991
 40
19.050000
 0
CIRCLE
 5
CEF
 330
BF
 100
AcDbEntity
 100
AcDbCircle
 10
1241.477896
 20
1316.863991
 40
19.050000
 0
CIRCLE
 5
CF0
 330
BF
 100
AcDbEntity
 100
AcDbCircle
 10
1153.489716
 20
1316.863991
 40
19.050000
 0
CIRCLE
 5
CF1
 330
BF
 100
AcDbEntity
 100
AcDbCircle
 10
1065.501536
 20
1316.863991
 40
19.050000
 0
CIRCLE
 5
CF2
 330
BF
 100
AcDbEntity
 100
AcDbCircle
 10
977.513356
 20
1316.863991
 40
19.050000
 0
CIRCLE
 5
CF3
 330
BF
 100
AcDbEntity
 100
AcDbCircle
 10
889.525176
 20
1316.863991
 40
19.050000
 0
CIRCLE
 5
CF4
 330
BF
 100
AcDbEntity
 100
AcDbCircle
 10
801.536996
 20
1316.863991
 40
19.050000
 0
CIRCLE
 5
CF5
 330
BF
 100
AcDbEntity
 100
AcDbCircle
 10
713.548816
 20
1316.863991
 40
19.050000
 0
CIRCLE
 5
CF6
 330
BF
 100
AcDbEntity
 100
AcDbCircle
 10
625.560636
 20
1316.863991
 40
19.050000
 0
CIRCLE
 5
CF7
 330
BF
 100
AcDbEntity
 100
AcDbCircle
 10
1461.448346
 20
1291.463991
 40
19.050000
 0
CIRCLE
 5
CF8
 330
BF
 100
AcDbEntity
 100
AcDbCircle
 10
1549.436526
 20
1291.463991
 40
19.050000
 0
CIRCLE
 5
CF9
 330
BF
 100
AcDbEntity
 100
AcDbCircle
 10
1637.424706
 20
1291.463991
 40
19.050000
 0
CIRCLE
 5
CFA
 330
BF
 100
AcDbEntity
 100
AcDbCircle
 10
1725.412886
 20
1291.463991
 40
19.050000
 0
CIRCLE
 5
CFB
 330
BF
 100
AcDbEntity
 100
AcDbCircle
 10
1813.401066
 20
1291.463991
 40
19.050000
 0
CIRCLE
 5
CFC
 330
BF
 100
AcDbEntity
 100
AcDbCircle
 10
1901.389246
 20
1291.463991
 40
19.050000
 0
CIRCLE
 5
CFD
 330
BF
 100
AcDbEntity
 100
AcDbCircle
 10
1989.377426
 20
1291.463991
 40
19.050000
 0
CIRCLE
 5
CFE
 330
BF
 100
AcDbEntity
 100
AcDbCircle
 10
2077.365606
 20
1291.463991
 40
19.050000
 0
CIRCLE
 5
CFF
 330
BF
 100
AcDbEntity
 100
AcDbCircle
 10
1285.471986
 20
1291.463991
 40
19.050000
 0
CIRCLE
 5
D00
 330
BF
 100
AcDbEntity
 100
AcDbCircle
 10
1197.483806
 20
1291.463991
 40
19.050000
 0
CIRCLE
 5
D01
 330
BF
 100
AcDbEntity
 100
AcDbCircle
 10
1109.495626
 20
1291.463991
 40
19.050000
 0
CIRCLE
 5
D02
 330
BF
 100
AcDbEntity
 100
AcDbCircle
 10
1021.507446
 20
1291.463991
 40
19.050000
 0
CIRCLE
 5
D03
 330
BF
 100
AcDbEntity
 100
AcDbCircle
 10
933.519266
 20
1291.463991
 40
19.050000
 0
CIRCLE
 5
D04
 330
BF
 100
AcDbEntity
 100
AcDbCircle
 10
845.531086
 20
1291.463991
 40
19.050000
 0
CIRCLE
 5
D05
 330
BF
 100
AcDbEntity
 100
AcDbCircle
 10
757.542906
 20
1291.463991
 40
19.050000
 0
CIRCLE
 5
D06
 330
BF
 100
AcDbEntity
 100
AcDbCircle
 10
669.554726
 20
1291.463991
 40
19.050000
 0
CIRCLE
 5
D07
 330
BF
 100
AcDbEntity
 100
AcDbCircle
 10
1417.454256
 20
1266.063992
 40
19.050000
 0
CIRCLE
 5
D08
 330
BF
 100
AcDbEntity
 100
AcDbCircle
 10
1505.442436
 20
1266.063992
 40
19.050000
 0
CIRCLE
 5
D09
 330
BF
 100
AcDbEntity
 100
AcDbCircle
 10
1593.430616
 20
1266.063992
 40
19.050000
 0
CIRCLE
 5
D0A
 330
BF
 100
AcDbEntity
 100
AcDbCircle
 10
1681.418796
 20
1266.063992
 40
19.050000
 0
CIRCLE
 5
D0B
 330
BF
 100
AcDbEntity
 100
AcDbCircle
 10
1769.406976
 20
1266.063992
 40
19.050000
 0
CIRCLE
 5
D0C
 330
BF
 100
AcDbEntity
 100
AcDbCircle
 10
1857.395156
 20
1266.063992
 40
19.050000
 0
CIRCLE
 5
D0D
 330
BF
 100
AcDbEntity
 100
AcDbCircle
 10
1945.383336
 20
1266.063992
 40
19.050000
 0
CIRCLE
 5
D0E
 330
BF
 100
AcDbEntity
 100
AcDbCircle
 10
2033.371516
 20
1266.063992
 40
19.050000
 0
CIRCLE
 5
D0F
 330
BF
 100
AcDbEntity
 100
AcDbCircle
 10
2121.359696
 20
1266.063992
 40
19.050000
 0
CIRCLE
 5
D10
 330
BF
 100
AcDbEntity
 100
AcDbCircle
 10
1329.466076
 20
1266.063992
 40
19.050000
 0
CIRCLE
 5
D11
 330
BF
 100
AcDbEntity
 100
AcDbCircle
 10
1241.477896
 20
1266.063992
 40
19.050000
 0
CIRCLE
 5
D12
 330
BF
 100
AcDbEntity
 100
AcDbCircle
 10
1153.489716
 20
1266.063992
 40
19.050000
 0
CIRCLE
 5
D13
 330
BF
 100
AcDbEntity
 100
AcDbCircle
 10
1065.501536
 20
1266.063992
 40
19.050000
 0
CIRCLE
 5
D14
 330
BF
 100
AcDbEntity
 100
AcDbCircle
 10
977.513356
 20
1266.063992
 40
19.050000
 0
CIRCLE
 5
D15
 330
BF
 100
AcDbEntity
 100
AcDbCircle
 10
889.525176
 20
1266.063992
 40
19.050000
 0
CIRCLE
 5
D16
 330
BF
 100
AcDbEntity
 100
AcDbCircle
 10
801.536996
 20
1266.063992
 40
19.050000
 0
CIRCLE
 5
D17
 330
BF
 100
AcDbEntity
 100
AcDbCircle
 10
713.548816
 20
1266.063992
 40
19.050000
 0
CIRCLE
 5
D18
 330
BF
 100
AcDbEntity
 100
AcDbCircle
 10
625.560636
 20
1266.063992
 40
19.050000
 0
CIRCLE
 5
D19
 330
BF
 100
AcDbEntity
 100
AcDbCircle
 10
1373.460166
 20
1240.663992
 40
19.050000
 0
CIRCLE
 5
D1A
 330
BF
 100
AcDbEntity
 100
AcDbCircle
 10
1461.448346
 20
1240.663992
 40
19.050000
 0
CIRCLE
 5
D1B
 330
BF
 100
AcDbEntity
 100
AcDbCircle
 10
1549.436526
 20
1240.663992
 40
19.050000
 0
CIRCLE
 5
D1C
 330
BF
 100
AcDbEntity
 100
AcDbCircle
 10
1637.424706
 20
1240.663992
 40
19.050000
 0
CIRCLE
 5
D1D
 330
BF
 100
AcDbEntity
 100
AcDbCircle
 10
1725.412886
 20
1240.663992
 40
19.050000
 0
CIRCLE
 5
D1E
 330
BF
 100
AcDbEntity
 100
AcDbCircle
 10
1813.401066
 20
1240.663992
 40
19.050000
 0
CIRCLE
 5
D1F
 330
BF
 100
AcDbEntity
 100
AcDbCircle
 10
1901.389246
 20
1240.663992
 40
19.050000
 0
CIRCLE
 5
D20
 330
BF
 100
AcDbEntity
 100
AcDbCircle
 10
1989.377426
 20
1240.663992
 40
19.050000
 0
CIRCLE
 5
D21
 330
BF
 100
AcDbEntity
 100
AcDbCircle
 10
2077.365606
 20
1240.663992
 40
19.050000
 0
CIRCLE
 5
D22
 330
BF
 100
AcDbEntity
 100
AcDbCircle
 10
1285.471986
 20
1240.663992
 40
19.050000
 0
CIRCLE
 5
D23
 330
BF
 100
AcDbEntity
 100
AcDbCircle
 10
1197.483806
 20
1240.663992
 40
19.050000
 0
CIRCLE
 5
D24
 330
BF
 100
AcDbEntity
 100
AcDbCircle
 10
1109.495626
 20
1240.663992
 40
19.050000
 0
CIRCLE
 5
D25
 330
BF
 100
AcDbEntity
 100
AcDbCircle
 10
1021.507446
 20
1240.663992
 40
19.050000
 0
CIRCLE
 5
D26
 330
BF
 100
AcDbEntity
 100
AcDbCircle
 10
933.519266
 20
1240.663992
 40
19.050000
 0
CIRCLE
 5
D27
 330
BF
 100
AcDbEntity
 100
AcDbCircle
 10
845.531086
 20
1240.663992
 40
19.050000
 0
CIRCLE
 5
D28
 330
BF
 100
AcDbEntity
 100
AcDbCircle
 10
757.542906
 20
1240.663992
 40
19.050000
 0
CIRCLE
 5
D29
 330
BF
 100
AcDbEntity
 100
AcDbCircle
 10
669.554726
 20
1240.663992
 40
19.050000
 0
CIRCLE
 5
D2A
 330
BF
 100
AcDbEntity
 100
AcDbCircle
 10
1417.454256
 20
1215.263992
 40
19.050000
 0
CIRCLE
 5
D2B
 330
BF
 100
AcDbEntity
 100
AcDbCircle
 10
1505.442436
 20
1215.263992
 40
19.050000
 0
CIRCLE
 5
D2C
 330
BF
 100
AcDbEntity
 100
AcDbCircle
 10
1593.430616
 20
1215.263992
 40
19.050000
 0
CIRCLE
 5
D2D
 330
BF
 100
AcDbEntity
 100
AcDbCircle
 10
1681.418796
 20
1215.263992
 40
19.050000
 0
CIRCLE
 5
D2E
 330
BF
 100
AcDbEntity
 100
AcDbCircle
 10
1769.406976
 20
1215.263992
 40
19.050000
 0
CIRCLE
 5
D2F
 330
BF
 100
AcDbEntity
 100
AcDbCircle
 10
1857.395156
 20
1215.263992
 40
19.050000
 0
CIRCLE
 5
D30
 330
BF
 100
AcDbEntity
 100
AcDbCircle
 10
1945.383336
 20
1215.263992
 40
19.050000
 0
CIRCLE
 5
D31
 330
BF
 100
AcDbEntity
 100
AcDbCircle
 10
2033.371516
 20
1215.263992
 40
19.050000
 0
CIRCLE
 5
D32
 330
BF
 100
AcDbEntity
 100
AcDbCircle
 10
1329.466076
 20
1215.263992
 40
19.050000
 0
CIRCLE
 5
D33
 330
BF
 100
AcDbEntity
 100
AcDbCircle
 10
1241.477896
 20
1215.263992
 40
19.050000
 0
CIRCLE
 5
D34
 330
BF
 100
AcDbEntity
 100
AcDbCircle
 10
1153.489716
 20
1215.263992
 40
19.050000
 0
CIRCLE
 5
D35
 330
BF
 100
AcDbEntity
 100
AcDbCircle
 10
1065.501536
 20
1215.263992
 40
19.050000
 0
CIRCLE
 5
D36
 330
BF
 100
AcDbEntity
 100
AcDbCircle
 10
977.513356
 20
1215.263992
 40
19.050000
 0
CIRCLE
 5
D37
 330
BF
 100
AcDbEntity
 100
AcDbCircle
 10
889.525176
 20
1215.263992
 40
19.050000
 0
CIRCLE
 5
D38
 330
BF
 100
AcDbEntity
 100
AcDbCircle
 10
801.536996
 20
1215.263992
 40
19.050000
 0
CIRCLE
 5
D39
 330
BF
 100
AcDbEntity
 100
AcDbCircle
 10
713.548816
 20
1215.263992
 40
19.050000
 0
CIRCLE
 5
D3A
 330
BF
 100
AcDbEntity
 100
AcDbCircle
 10
1373.460166
 20
1189.863993
 40
19.050000
 0
CIRCLE
 5
D3B
 330
BF
 100
AcDbEntity
 100
AcDbCircle
 10
1461.448346
 20
1189.863993
 40
19.050000
 0
CIRCLE
 5
D3C
 330
BF
 100
AcDbEntity
 100
AcDbCircle
 10
1549.436526
 20
1189.863993
 40
19.050000
 0
CIRCLE
 5
D3D
 330
BF
 100
AcDbEntity
 100
AcDbCircle
 10
1637.424706
 20
1189.863993
 40
19.050000
 0
CIRCLE
 5
D3E
 330
BF
 100
AcDbEntity
 100
AcDbCircle
 10
1725.412886
 20
1189.863993
 40
19.050000
 0
CIRCLE
 5
D3F
 330
BF
 100
AcDbEntity
 100
AcDbCircle
 10
1813.401066
 20
1189.863993
 40
19.050000
 0
CIRCLE
 5
D40
 330
BF
 100
AcDbEntity
 100
AcDbCircle
 10
1901.389246
 20
1189.863993
 40
19.050000
 0
CIRCLE
 5
D41
 330
BF
 100
AcDbEntity
 100
AcDbCircle
 10
1989.377426
 20
1189.863993
 40
19.050000
 0
CIRCLE
 5
D42
 330
BF
 100
AcDbEntity
 100
AcDbCircle
 10
2077.365606
 20
1189.863993
 40
19.050000
 0
CIRCLE
 5
D43
 330
BF
 100
AcDbEntity
 100
AcDbCircle
 10
1285.471986
 20
1189.863993
 40
19.050000
 0
CIRCLE
 5
D44
 330
BF
 100
AcDbEntity
 100
AcDbCircle
 10
1197.483806
 20
1189.863993
 40
19.050000
 0
CIRCLE
 5
D45
 330
BF
 100
AcDbEntity
 100
AcDbCircle
 10
1109.495626
 20
1189.863993
 40
19.050000
 0
CIRCLE
 5
D46
 330
BF
 100
AcDbEntity
 100
AcDbCircle
 10
1021.507446
 20
1189.863993
 40
19.050000
 0
CIRCLE
 5
D47
 330
BF
 100
AcDbEntity
 100
AcDbCircle
 10
933.519266
 20
1189.863993
 40
19.050000
 0
CIRCLE
 5
D48
 330
BF
 100
AcDbEntity
 100
AcDbCircle
 10
845.531086
 20
1189.863993
 40
19.050000
 0
CIRCLE
 5
D49
 330
BF
 100
AcDbEntity
 100
AcDbCircle
 10
757.542906
 20
1189.863993
 40
19.050000
 0
CIRCLE
 5
D4A
 330
BF
 100
AcDbEntity
 100
AcDbCircle
 10
669.554726
 20
1189.863993
 40
19.050000
 0
CIRCLE
 5
D4B
 330
BF
 100
AcDbEntity
 100
AcDbCircle
 10
1417.454256
 20
1164.463993
 40
19.050000
 0
CIRCLE
 5
D4C
 330
BF
 100
AcDbEntity
 100
AcDbCircle
 10
1505.442436
 20
1164.463993
 40
19.050000
 0
CIRCLE
 5
D4D
 330
BF
 100
AcDbEntity
 100
AcDbCircle
 10
1593.430616
 20
1164.463993
 40
19.050000
 0
CIRCLE
 5
D4E
 330
BF
 100
AcDbEntity
 100
AcDbCircle
 10
1681.418796
 20
1164.463993
 40
19.050000
 0
CIRCLE
 5
D4F
 330
BF
 100
AcDbEntity
 100
AcDbCircle
 10
1769.406976
 20
1164.463993
 40
19.050000
 0
CIRCLE
 5
D50
 330
BF
 100
AcDbEntity
 100
AcDbCircle
 10
1857.395156
 20
1164.463993
 40
19.050000
 0
CIRCLE
 5
D51
 330
BF
 100
AcDbEntity
 100
AcDbCircle
 10
1945.383336
 20
1164.463993
 40
19.050000
 0
CIRCLE
 5
D52
 330
BF
 100
AcDbEntity
 100
AcDbCircle
 10
2033.371516
 20
1164.463993
 40
19.050000
 0
CIRCLE
 5
D53
 330
BF
 100
AcDbEntity
 100
AcDbCircle
 10
1329.466076
 20
1164.463993
 40
19.050000
 0
CIRCLE
 5
D54
 330
BF
 100
AcDbEntity
 100
AcDbCircle
 10
1241.477896
 20
1164.463993
 40
19.050000
 0
CIRCLE
 5
D55
 330
BF
 100
AcDbEntity
 100
AcDbCircle
 10
1153.489716
 20
1164.463993
 40
19.050000
 0
CIRCLE
 5
D56
 330
BF
 100
AcDbEntity
 100
AcDbCircle
 10
1065.501536
 20
1164.463993
 40
19.050000
 0
CIRCLE
 5
D57
 330
BF
 100
AcDbEntity
 100
AcDbCircle
 10
977.513356
 20
1164.463993
 40
19.050000
 0
CIRCLE
 5
D58
 330
BF
 100
AcDbEntity
 100
AcDbCircle
 10
889.525176
 20
1164.463993
 40
19.050000
 0
CIRCLE
 5
D59
 330
BF
 100
AcDbEntity
 100
AcDbCircle
 10
801.536996
 20
1164.463993
 40
19.050000
 0
CIRCLE
 5
D5A
 330
BF
 100
AcDbEntity
 100
AcDbCircle
 10
713.548816
 20
1164.463993
 40
19.050000
 0
CIRCLE
 5
D5B
 330
BF
 100
AcDbEntity
 100
AcDbCircle
 10
1373.460166
 20
1139.063993
 40
19.050000
 0
CIRCLE
 5
D5C
 330
BF
 100
AcDbEntity
 100
AcDbCircle
 10
1461.448346
 20
1139.063993
 40
19.050000
 0
CIRCLE
 5
D5D
 330
BF
 100
AcDbEntity
 100
AcDbCircle
 10
1549.436526
 20
1139.063993
 40
19.050000
 0
CIRCLE
 5
D5E
 330
BF
 100
AcDbEntity
 100
AcDbCircle
 10
1637.424706
 20
1139.063993
 40
19.050000
 0
CIRCLE
 5
D5F
 330
BF
 100
AcDbEntity
 100
AcDbCircle
 10
1725.412886
 20
1139.063993
 40
19.050000
 0
CIRCLE
 5
D60
 330
BF
 100
AcDbEntity
 100
AcDbCircle
 10
1813.401066
 20
1139.063993
 40
19.050000
 0
CIRCLE
 5
D61
 330
BF
 100
AcDbEntity
 100
AcDbCircle
 10
1901.389246
 20
1139.063993
 40
19.050000
 0
CIRCLE
 5
D62
 330
BF
 100
AcDbEntity
 100
AcDbCircle
 10
1989.377426
 20
1139.063993
 40
19.050000
 0
CIRCLE
 5
D63
 330
BF
 100
AcDbEntity
 100
AcDbCircle
 10
1285.471986
 20
1139.063993
 40
19.050000
 0
CIRCLE
 5
D64
 330
BF
 100
AcDbEntity
 100
AcDbCircle
 10
1197.483806
 20
1139.063993
 40
19.050000
 0
CIRCLE
 5
D65
 330
BF
 100
AcDbEntity
 100
AcDbCircle
 10
1109.495626
 20
1139.063993
 40
19.050000
 0
CIRCLE
 5
D66
 330
BF
 100
AcDbEntity
 100
AcDbCircle
 10
1021.507446
 20
1139.063993
 40
19.050000
 0
CIRCLE
 5
D67
 330
BF
 100
AcDbEntity
 100
AcDbCircle
 10
933.519266
 20
1139.063993
 40
19.050000
 0
CIRCLE
 5
D68
 330
BF
 100
AcDbEntity
 100
AcDbCircle
 10
845.531086
 20
1139.063993
 40
19.050000
 0
CIRCLE
 5
D69
 330
BF
 100
AcDbEntity
 100
AcDbCircle
 10
757.542906
 20
1139.063993
 40
19.050000
 0
CIRCLE
 5
D6A
 330
BF
 100
AcDbEntity
 100
AcDbCircle
 10
1417.454256
 20
1113.663994
 40
19.050000
 0
CIRCLE
 5
D6B
 330
BF
 100
AcDbEntity
 100
AcDbCircle
 10
1505.442436
 20
1113.663994
 40
19.050000
 0
CIRCLE
 5
D6C
 330
BF
 100
AcDbEntity
 100
AcDbCircle
 10
1593.430616
 20
1113.663994
 40
19.050000
 0
CIRCLE
 5
D6D
 330
BF
 100
AcDbEntity
 100
AcDbCircle
 10
1681.418796
 20
1113.663994
 40
19.050000
 0
CIRCLE
 5
D6E
 330
BF
 100
AcDbEntity
 100
AcDbCircle
 10
1769.406976
 20
1113.663994
 40
19.050000
 0
CIRCLE
 5
D6F
 330
BF
 100
AcDbEntity
 100
AcDbCircle
 10
1857.395156
 20
1113.663994
 40
19.050000
 0
CIRCLE
 5
D70
 330
BF
 100
AcDbEntity
 100
AcDbCircle
 10
1945.383336
 20
1113.663994
 40
19.050000
 0
CIRCLE
 5
D71
 330
BF
 100
AcDbEntity
 100
AcDbCircle
 10
2033.371516
 20
1113.663994
 40
19.050000
 0
CIRCLE
 5
D72
 330
BF
 100
AcDbEntity
 100
AcDbCircle
 10
1329.466076
 20
1113.663994
 40
19.050000
 0
CIRCLE
 5
D73
 330
BF
 100
AcDbEntity
 100
AcDbCircle
 10
1241.477896
 20
1113.663994
 40
19.050000
 0
CIRCLE
 5
D74
 330
BF
 100
AcDbEntity
 100
AcDbCircle
 10
1153.489716
 20
1113.663994
 40
19.050000
 0
CIRCLE
 5
D75
 330
BF
 100
AcDbEntity
 100
AcDbCircle
 10
1065.501536
 20
1113.663994
 40
19.050000
 0
CIRCLE
 5
D76
 330
BF
 100
AcDbEntity
 100
AcDbCircle
 10
977.513356
 20
1113.663994
 40
19.050000
 0
CIRCLE
 5
D77
 330
BF
 100
AcDbEntity
 100
AcDbCircle
 10
889.525176
 20
1113.663994
 40
19.050000
 0
CIRCLE
 5
D78
 330
BF
 100
AcDbEntity
 100
AcDbCircle
 10
801.536996
 20
1113.663994
 40
19.050000
 0
CIRCLE
 5
D79
 330
BF
 100
AcDbEntity
 100
AcDbCircle
 10
713.548816
 20
1113.663994
 40
19.050000
 0
CIRCLE
 5
D7A
 330
BF
 100
AcDbEntity
 100
AcDbCircle
 10
1373.460166
 20
1088.263994
 40
19.050000
 0
CIRCLE
 5
D7B
 330
BF
 100
AcDbEntity
 100
AcDbCircle
 10
1461.448346
 20
1088.263994
 40
19.050000
 0
CIRCLE
 5
D7C
 330
BF
 100
AcDbEntity
 100
AcDbCircle
 10
1549.436526
 20
1088.263994
 40
19.050000
 0
CIRCLE
 5
D7D
 330
BF
 100
AcDbEntity
 100
AcDbCircle
 10
1637.424706
 20
1088.263994
 40
19.050000
 0
CIRCLE
 5
D7E
 330
BF
 100
AcDbEntity
 100
AcDbCircle
 10
1725.412886
 20
1088.263994
 40
19.050000
 0
CIRCLE
 5
D7F
 330
BF
 100
AcDbEntity
 100
AcDbCircle
 10
1813.401066
 20
1088.263994
 40
19.050000
 0
CIRCLE
 5
D80
 330
BF
 100
AcDbEntity
 100
AcDbCircle
 10
1901.389246
 20
1088.263994
 40
19.050000
 0
CIRCLE
 5
D81
 330
BF
 100
AcDbEntity
 100
AcDbCircle
 10
1989.377426
 20
1088.263994
 40
19.050000
 0
CIRCLE
 5
D82
 330
BF
 100
AcDbEntity
 100
AcDbCircle
 10
1285.471986
 20
1088.263994
 40
19.050000
 0
CIRCLE
 5
D83
 330
BF
 100
AcDbEntity
 100
AcDbCircle
 10
1197.483806
 20
1088.263994
 40
19.050000
 0
CIRCLE
 5
D84
 330
BF
 100
AcDbEntity
 100
AcDbCircle
 10
1109.495626
 20
1088.263994
 40
19.050000
 0
CIRCLE
 5
D85
 330
BF
 100
AcDbEntity
 100
AcDbCircle
 10
1021.507446
 20
1088.263994
 40
19.050000
 0
CIRCLE
 5
D86
 330
BF
 100
AcDbEntity
 100
AcDbCircle
 10
933.519266
 20
1088.263994
 40
19.050000
 0
CIRCLE
 5
D87
 330
BF
 100
AcDbEntity
 100
AcDbCircle
 10
845.531086
 20
1088.263994
 40
19.050000
 0
CIRCLE
 5
D88
 330
BF
 100
AcDbEntity
 100
AcDbCircle
 10
757.542906
 20
1088.263994
 40
19.050000
 0
CIRCLE
 5
D89
 330
BF
 100
AcDbEntity
 100
AcDbCircle
 10
1417.454256
 20
1062.863994
 40
19.050000
 0
CIRCLE
 5
D8A
 330
BF
 100
AcDbEntity
 100
AcDbCircle
 10
1505.442436
 20
1062.863994
 40
19.050000
 0
CIRCLE
 5
D8B
 330
BF
 100
AcDbEntity
 100
AcDbCircle
 10
1593.430616
 20
1062.863994
 40
19.050000
 0
CIRCLE
 5
D8C
 330
BF
 100
AcDbEntity
 100
AcDbCircle
 10
1681.418796
 20
1062.863994
 40
19.050000
 0
CIRCLE
 5
D8D
 330
BF
 100
AcDbEntity
 100
AcDbCircle
 10
1769.406976
 20
1062.863994
 40
19.050000
 0
CIRCLE
 5
D8E
 330
BF
 100
AcDbEntity
 100
AcDbCircle
 10
1857.395156
 20
1062.863994
 40
19.050000
 0
CIRCLE
 5
D8F
 330
BF
 100
AcDbEntity
 100
AcDbCircle
 10
1945.383336
 20
1062.863994
 40
19.050000
 0
CIRCLE
 5
D90
 330
BF
 100
AcDbEntity
 100
AcDbCircle
 10
1329.466076
 20
1062.863994
 40
19.050000
 0
CIRCLE
 5
D91
 330
BF
 100
AcDbEntity
 100
AcDbCircle
 10
1241.477896
 20
1062.863994
 40
19.050000
 0
CIRCLE
 5
D92
 330
BF
 100
AcDbEntity
 100
AcDbCircle
 10
1153.489716
 20
1062.863994
 40
19.050000
 0
CIRCLE
 5
D93
 330
BF
 100
AcDbEntity
 100
AcDbCircle
 10
1065.501536
 20
1062.863994
 40
19.050000
 0
CIRCLE
 5
D94
 330
BF
 100
AcDbEntity
 100
AcDbCircle
 10
977.513356
 20
1062.863994
 40
19.050000
 0
CIRCLE
 5
D95
 330
BF
 100
AcDbEntity
 100
AcDbCircle
 10
889.525176
 20
1062.863994
 40
19.050000
 0
CIRCLE
 5
D96
 330
BF
 100
AcDbEntity
 100
AcDbCircle
 10
801.536996
 20
1062.863994
 40
19.050000
 0
CIRCLE
 5
D97
 330
BF
 100
AcDbEntity
 100
AcDbCircle
 10
1373.460166
 20
1037.463994
 40
19.050000
 0
CIRCLE
 5
D98
 330
BF
 100
AcDbEntity
 100
AcDbCircle
 10
1461.448346
 20
1037.463994
 40
19.050000
 0
CIRCLE
 5
D99
 330
BF
 100
AcDbEntity
 100
AcDbCircle
 10
1549.436526
 20
1037.463994
 40
19.050000
 0
CIRCLE
 5
D9A
 330
BF
 100
AcDbEntity
 100
AcDbCircle
 10
1637.424706
 20
1037.463994
 40
19.050000
 0
CIRCLE
 5
D9B
 330
BF
 100
AcDbEntity
 100
AcDbCircle
 10
1725.412886
 20
1037.463994
 40
19.050000
 0
CIRCLE
 5
D9C
 330
BF
 100
AcDbEntity
 100
AcDbCircle
 10
1813.401066
 20
1037.463994
 40
19.050000
 0
CIRCLE
 5
D9D
 330
BF
 100
AcDbEntity
 100
AcDbCircle
 10
1901.389246
 20
1037.463994
 40
19.050000
 0
CIRCLE
 5
D9E
 330
BF
 100
AcDbEntity
 100
AcDbCircle
 10
1989.377426
 20
1037.463994
 40
19.050000
 0
CIRCLE
 5
D9F
 330
BF
 100
AcDbEntity
 100
AcDbCircle
 10
1285.471986
 20
1037.463994
 40
19.050000
 0
CIRCLE
 5
DA0
 330
BF
 100
AcDbEntity
 100
AcDbCircle
 10
1197.483806
 20
1037.463994
 40
19.050000
 0
CIRCLE
 5
DA1
 330
BF
 100
AcDbEntity
 100
AcDbCircle
 10
1109.495626
 20
1037.463994
 40
19.050000
 0
CIRCLE
 5
DA2
 330
BF
 100
AcDbEntity
 100
AcDbCircle
 10
1021.507446
 20
1037.463994
 40
19.050000
 0
CIRCLE
 5
DA3
 330
BF
 100
AcDbEntity
 100
AcDbCircle
 10
933.519266
 20
1037.463994
 40
19.050000
 0
CIRCLE
 5
DA4
 330
BF
 100
AcDbEntity
 100
AcDbCircle
 10
845.531086
 20
1037.463994
 40
19.050000
 0
CIRCLE
 5
DA5
 330
BF
 100
AcDbEntity
 100
AcDbCircle
 10
757.542906
 20
1037.463994
 40
19.050000
 0
CIRCLE
 5
DA6
 330
BF
 100
AcDbEntity
 100
AcDbCircle
 10
1417.454256
 20
1012.063995
 40
19.050000
 0
CIRCLE
 5
DA7
 330
BF
 100
AcDbEntity
 100
AcDbCircle
 10
1505.442436
 20
1012.063995
 40
19.050000
 0
CIRCLE
 5
DA8
 330
BF
 100
AcDbEntity
 100
AcDbCircle
 10
1593.430616
 20
1012.063995
 40
19.050000
 0
CIRCLE
 5
DA9
 330
BF
 100
AcDbEntity
 100
AcDbCircle
 10
1681.418796
 20
1012.063995
 40
19.050000
 0
CIRCLE
 5
DAA
 330
BF
 100
AcDbEntity
 100
AcDbCircle
 10
1769.406976
 20
1012.063995
 40
19.050000
 0
CIRCLE
 5
DAB
 330
BF
 100
AcDbEntity
 100
AcDbCircle
 10
1857.395156
 20
1012.063995
 40
19.050000
 0
CIRCLE
 5
DAC
 330
BF
 100
AcDbEntity
 100
AcDbCircle
 10
1945.383336
 20
1012.063995
 40
19.050000
 0
CIRCLE
 5
DAD
 330
BF
 100
AcDbEntity
 100
AcDbCircle
 10
1329.466076
 20
1012.063995
 40
19.050000
 0
CIRCLE
 5
DAE
 330
BF
 100
AcDbEntity
 100
AcDbCircle
 10
1241.477896
 20
1012.063995
 40
19.050000
 0
CIRCLE
 5
DAF
 330
BF
 100
AcDbEntity
 100
AcDbCircle
 10
1153.489716
 20
1012.063995
 40
19.050000
 0
CIRCLE
 5
DB0
 330
BF
 100
AcDbEntity
 100
AcDbCircle
 10
1065.501536
 20
1012.063995
 40
19.050000
 0
CIRCLE
 5
DB1
 330
BF
 100
AcDbEntity
 100
AcDbCircle
 10
977.513356
 20
1012.063995
 40
19.050000
 0
CIRCLE
 5
DB2
 330
BF
 100
AcDbEntity
 100
AcDbCircle
 10
889.525176
 20
1012.063995
 40
19.050000
 0
CIRCLE
 5
DB3
 330
BF
 100
AcDbEntity
 100
AcDbCircle
 10
801.536996
 20
1012.063995
 40
19.050000
 0
CIRCLE
 5
DB4
 330
BF
 100
AcDbEntity
 100
AcDbCircle
 10
1373.460166
 20
986.663995
 40
19.050000
 0
CIRCLE
 5
DB5
 330
BF
 100
AcDbEntity
 100
AcDbCircle
 10
1461.448346
 20
986.663995
 40
19.050000
 0
CIRCLE
 5
DB6
 330
BF
 100
AcDbEntity
 100
AcDbCircle
 10
1549.436526
 20
986.663995
 40
19.050000
 0
CIRCLE
 5
DB7
 330
BF
 100
AcDbEntity
 100
AcDbCircle
 10
1637.424706
 20
986.663995
 40
19.050000
 0
CIRCLE
 5
DB8
 330
BF
 100
AcDbEntity
 100
AcDbCircle
 10
1725.412886
 20
986.663995
 40
19.050000
 0
CIRCLE
 5
DB9
 330
BF
 100
AcDbEntity
 100
AcDbCircle
 10
1813.401066
 20
986.663995
 40
19.050000
 0
CIRCLE
 5
DBA
 330
BF
 100
AcDbEntity
 100
AcDbCircle
 10
1901.389246
 20
986.663995
 40
19.050000
 0
CIRCLE
 5
DBB
 330
BF
 100
AcDbEntity
 100
AcDbCircle
 10
1285.471986
 20
986.663995
 40
19.050000
 0
CIRCLE
 5
DBC
 330
BF
 100
AcDbEntity
 100
AcDbCircle
 10
1197.483806
 20
986.663995
 40
19.050000
 0
CIRCLE
 5
DBD
 330
BF
 100
AcDbEntity
 100
AcDbCircle
 10
1109.495626
 20
986.663995
 40
19.050000
 0
CIRCLE
 5
DBE
 330
BF
 100
AcDbEntity
 100
AcDbCircle
 10
1021.507446
 20
986.663995
 40
19.050000
 0
CIRCLE
 5
DBF
 330
BF
 100
AcDbEntity
 100
AcDbCircle
 10
933.519266
 20
986.663995
 40
19.050000
 0
CIRCLE
 5
DC0
 330
BF
 100
AcDbEntity
 100
AcDbCircle
 10
845.531086
 20
986.663995
 40
19.050000
 0
CIRCLE
 5
DC1
 330
BF
 100
AcDbEntity
 100
AcDbCircle
 10
1417.454256
 20
961.263995
 40
19.050000
 0
CIRCLE
 5
DC2
 330
BF
 100
AcDbEntity
 100
AcDbCircle
 10
1505.442436
 20
961.263995
 40
19.050000
 0
CIRCLE
 5
DC3
 330
BF
 100
AcDbEntity
 100
AcDbCircle
 10
1593.430616
 20
961.263995
 40
19.050000
 0
CIRCLE
 5
DC4
 330
BF
 100
AcDbEntity
 100
AcDbCircle
 10
1681.418796
 20
961.263995
 40
19.050000
 0
CIRCLE
 5
DC5
 330
BF
 100
AcDbEntity
 100
AcDbCircle
 10
1769.406976
 20
961.263995
 40
19.050000
 0
CIRCLE
 5
DC6
 330
BF
 100
AcDbEntity
 100
AcDbCircle
 10
1857.395156
 20
961.263995
 40
19.050000
 0
CIRCLE
 5
DC7
 330
BF
 100
AcDbEntity
 100
AcDbCircle
 10
1329.466076
 20
961.263995
 40
19.050000
 0
CIRCLE
 5
DC8
 330
BF
 100
AcDbEntity
 100
AcDbCircle
 10
1241.477896
 20
961.263995
 40
19.050000
 0
CIRCLE
 5
DC9
 330
BF
 100
AcDbEntity
 100
AcDbCircle
 10
1153.489716
 20
961.263995
 40
19.050000
 0
CIRCLE
 5
DCA
 330
BF
 100
AcDbEntity
 100
AcDbCircle
 10
1065.501536
 20
961.263995
 40
19.050000
 0
CIRCLE
 5
DCB
 330
BF
 100
AcDbEntity
 100
AcDbCircle
 10
977.513356
 20
961.263995
 40
19.050000
 0
CIRCLE
 5
DCC
 330
BF
 100
AcDbEntity
 100
AcDbCircle
 10
889.525176
 20
961.263995
 40
19.050000
 0
CIRCLE
 5
DCD
 330
BF
 100
AcDbEntity
 100
AcDbCircle
 10
1373.460166
 20
935.863996
 40
19.050000
 0
CIRCLE
 5
DCE
 330
BF
 100
AcDbEntity
 100
AcDbCircle
 10
1461.448346
 20
935.863996
 40
19.050000
 0
CIRCLE
 5
DCF
 330
BF
 100
AcDbEntity
 100
AcDbCircle
 10
1549.436526
 20
935.863996
 40
19.050000
 0
CIRCLE
 5
DD0
 330
BF
 100
AcDbEntity
 100
AcDbCircle
 10
1637.424706
 20
935.863996
 40
19.050000
 0
CIRCLE
 5
DD1
 330
BF
 100
AcDbEntity
 100
AcDbCircle
 10
1725.412886
 20
935.863996
 40
19.050000
 0
CIRCLE
 5
DD2
 330
BF
 100
AcDbEntity
 100
AcDbCircle
 10
1813.401066
 20
935.863996
 40
19.050000
 0
CIRCLE
 5
DD3
 330
BF
 100
AcDbEntity
 100
AcDbCircle
 10
1285.471986
 20
935.863996
 40
19.050000
 0
CIRCLE
 5
DD4
 330
BF
 100
AcDbEntity
 100
AcDbCircle
 10
1197.483806
 20
935.863996
 40
19.050000
 0
CIRCLE
 5
DD5
 330
BF
 100
AcDbEntity
 100
AcDbCircle
 10
1109.495626
 20
935.863996
 40
19.050000
 0
CIRCLE
 5
DD6
 330
BF
 100
AcDbEntity
 100
AcDbCircle
 10
1021.507446
 20
935.863996
 40
19.050000
 0
CIRCLE
 5
DD7
 330
BF
 100
AcDbEntity
 100
AcDbCircle
 10
933.519266
 20
935.863996
 40
19.050000
 0
CIRCLE
 5
DD8
 330
BF
 100
AcDbEntity
 100
AcDbCircle
 10
1417.454256
 20
910.463996
 40
19.050000
 0
CIRCLE
 5
DD9
 330
BF
 100
AcDbEntity
 100
AcDbCircle
 10
1505.442436
 20
910.463996
 40
19.050000
 0
CIRCLE
 5
DDA
 330
BF
 100
AcDbEntity
 100
AcDbCircle
 10
1593.430616
 20
910.463996
 40
19.050000
 0
CIRCLE
 5
DDB
 330
BF
 100
AcDbEntity
 100
AcDbCircle
 10
1681.418796
 20
910.463996
 40
19.050000
 0
CIRCLE
 5
DDC
 330
BF
 100
AcDbEntity
 100
AcDbCircle
 10
1769.406976
 20
910.463996
 40
19.050000
 0
CIRCLE
 5
DDD
 330
BF
 100
AcDbEntity
 100
AcDbCircle
 10
1329.466076
 20
910.463996
 40
19.050000
 0
CIRCLE
 5
DDE
 330
BF
 100
AcDbEntity
 100
AcDbCircle
 10
1241.477896
 20
910.463996
 40
19.050000
 0
CIRCLE
 5
DDF
 330
BF
 100
AcDbEntity
 100
AcDbCircle
 10
1153.489716
 20
910.463996
 40
19.050000
 0
CIRCLE
 5
DE0
 330
BF
 100
AcDbEntity
 100
AcDbCircle
 10
1065.501536
 20
910.463996
 40
19.050000
 0
CIRCLE
 5
DE1
 330
BF
 100
AcDbEntity
 100
AcDbCircle
 10
977.513356
 20
910.463996
 40
19.050000
 0
CIRCLE
 5
DE2
 330
BF
 100
AcDbEntity
 100
AcDbCircle
 10
1373.460166
 20
885.063996
 40
19.050000
 0
CIRCLE
 5
DE3
 330
BF
 100
AcDbEntity
 100
AcDbCircle
 10
1461.448346
 20
885.063996
 40
19.050000
 0
CIRCLE
 5
DE4
 330
BF
 100
AcDbEntity
 100
AcDbCircle
 10
1549.436526
 20
885.063996
 40
19.050000
 0
CIRCLE
 5
DE5
 330
BF
 100
AcDbEntity
 100
AcDbCircle
 10
1637.424706
 20
885.063996
 40
19.050000
 0
CIRCLE
 5
DE6
 330
BF
 100
AcDbEntity
 100
AcDbCircle
 10
1725.412886
 20
885.063996
 40
19.050000
 0
CIRCLE
 5
DE7
 330
BF
 100
AcDbEntity
 100
AcDbCircle
 10
1285.471986
 20
885.063996
 40
19.050000
 0
CIRCLE
 5
DE8
 330
BF
 100
AcDbEntity
 100
AcDbCircle
 10
1197.483806
 20
885.063996
 40
19.050000
 0
CIRCLE
 5
DE9
 330
BF
 100
AcDbEntity
 100
AcDbCircle
 10
1109.495626
 20
885.063996
 40
19.050000
 0
CIRCLE
 5
DEA
 330
BF
 100
AcDbEntity
 100
AcDbCircle
 10
1021.507446
 20
885.063996
 40
19.050000
 0
CIRCLE
 5
DEB
 330
BF
 100
AcDbEntity
 100
AcDbCircle
 10
1417.454256
 20
859.663997
 40
19.050000
 0
CIRCLE
 5
DEC
 330
BF
 100
AcDbEntity
 100
AcDbCircle
 10
1505.442436
 20
859.663997
 40
19.050000
 0
CIRCLE
 5
DED
 330
BF
 100
AcDbEntity
 100
AcDbCircle
 10
1593.430616
 20
859.663997
 40
19.050000
 0
CIRCLE
 5
DEE
 330
BF
 100
AcDbEntity
 100
AcDbCircle
 10
1681.418796
 20
859.663997
 40
19.050000
 0
CIRCLE
 5
DEF
 330
BF
 100
AcDbEntity
 100
AcDbCircle
 10
1329.466076
 20
859.663997
 40
19.050000
 0
CIRCLE
 5
DF0
 330
BF
 100
AcDbEntity
 100
AcDbCircle
 10
1241.477896
 20
859.663997
 40
19.050000
 0
CIRCLE
 5
DF1
 330
BF
 100
AcDbEntity
 100
AcDbCircle
 10
1153.489716
 20
859.663997
 40
19.050000
 0
CIRCLE
 5
DF2
 330
BF
 100
AcDbEntity
 100
AcDbCircle
 10
1065.501536
 20
859.663997
 40
19.050000
 0
CIRCLE
 5
DF3
 330
BF
 100
AcDbEntity
 100
AcDbCircle
 10
1373.460166
 20
834.263997
 40
19.050000
 0
CIRCLE
 5
DF4
 330
BF
 100
AcDbEntity
 100
AcDbCircle
 10
1461.448346
 20
834.263997
 40
19.050000
 0
CIRCLE
 5
DF5
 330
BF
 100
AcDbEntity
 100
AcDbCircle
 10
1549.436526
 20
834.263997
 40
19.050000
 0
CIRCLE
 5
DF6
 330
BF
 100
AcDbEntity
 100
AcDbCircle
 10
1637.424706
 20
834.263997
 40
19.050000
 0
CIRCLE
 5
DF7
 330
BF
 100
AcDbEntity
 100
AcDbCircle
 10
1285.471986
 20
834.263997
 40
19.050000
 0
CIRCLE
 5
DF8
 330
BF
 100
AcDbEntity
 100
AcDbCircle
 10
1197.483806
 20
834.263997
 40
19.050000
 0
CIRCLE
 5
DF9
 330
BF
 100
AcDbEntity
 100
AcDbCircle
 10
1109.495626
 20
834.263997
 40
19.050000
 0
CIRCLE
 5
DFA
 330
BF
 100
AcDbEntity
 100
AcDbCircle
 10
1417.454256
 20
808.863997
 40
19.050000
 0
CIRCLE
 5
DFB
 330
BF
 100
AcDbEntity
 100
AcDbCircle
 10
1505.442436
 20
808.863997
 40
19.050000
 0
CIRCLE
 5
DFC
 330
BF
 100
AcDbEntity
 100
AcDbCircle
 10
1593.430616
 20
808.863997
 40
19.050000
 0
CIRCLE
 5
DFD
 330
BF
 100
AcDbEntity
 100
AcDbCircle
 10
1329.466076
 20
808.863997
 40
19.050000
 0
CIRCLE
 5
DFE
 330
BF
 100
AcDbEntity
 100
AcDbCircle
 10
1241.477896
 20
808.863997
 40
19.050000
 0
CIRCLE
 5
DFF
 330
BF
 100
AcDbEntity
 100
AcDbCircle
 10
1153.489716
 20
808.863997
 40
19.050000
 0
CIRCLE
 5
E00
 330
BF
 100
AcDbEntity
 100
AcDbCircle
 10
1373.460166
 20
783.463997
 40
19.050000
 0
CIRCLE
 5
E01
 330
BF
 100
AcDbEntity
 100
AcDbCircle
 10
1461.448346
 20
783.463997
 40
19.050000
 0
CIRCLE
 5
E02
 330
BF
 100
AcDbEntity
 100
AcDbCircle
 10
1549.436526
 20
783.463997
 40
19.050000
 0
CIRCLE
 5
E03
 330
BF
 100
AcDbEntity
 100
AcDbCircle
 10
1285.471986
 20
783.463997
 40
19.050000
 0
CIRCLE
 5
E04
 330
BF
 100
AcDbEntity
 100
AcDbCircle
 10
1197.483806
 20
783.463997
 40
19.050000
 0
HATCH
 5
E05
 330
BF
 100
AcDbEntity
 62
253
 100
AcDbHatch
 10
0.0
 20
0.0
 210
0.0
 220
0.0
 230
1.0
 2
SOLID
 70
1
 71
1
 91
1
 92
1
 93
1
 72
2
 10
2433.585166
 20
2656.388988
 40
7.937500
 50
0.0
 51
360.0
 73
1
 97
1
 330
E06
 75
0
 76
1
 98
0
 0
CIRCLE
 5
E06
 102
{ACAD_REACTORS
 330
E05
 102
}
 330
BF
 100
AcDbEntity
 100
AcDbCircle
 10
2433.585166
 20
2656.388988
 40
7.937500
 0
HATCH
 5
E07
 330
BF
 100
AcDbEntity
 62
8
 100
AcDbHatch
 10
0.0
 20
0.0
 210
0.0
 220
0.0
 230
1.0
 2
SOLID
 70
1
 71
1
 91
1
 92
1
 93
1
 72
2
 10
2433.585166
 20
2656.388988
 40
2.778125
 50
0.0
 51
360.0
 73
1
 97
1
 330
E08
 75
0
 76
1
 98
0
 0
CIRCLE
 5
E08
 102
{ACAD_REACTORS
 330
E07
 102
}
 330
BF
 100
AcDbEntity
 100
AcDbCircle
 10
2433.585166
 20
2656.388988
 40
2.778125
 0
HATCH
 5
E09
 330
BF
 100
AcDbEntity
 62
253
 100
AcDbHatch
 10
0.0
 20
0.0
 210
0.0
 220
0.0
 230
1.0
 2
SOLID
 70
1
 71
1
 91
1
 92
1
 93
1
 72
2
 10
2433.585166
 20
2680.201488
 40
7.937500
 50
0.0
 51
360.0
 73
1
 97
1
 330
E0A
 75
0
 76
1
 98
0
 0
CIRCLE
 5
E0A
 102
{ACAD_REACTORS
 330
E09
 102
}
 330
BF
 100
AcDbEntity
 100
AcDbCircle
 10
2433.585166
 20
2680.201488
 40
7.937500
 0
HATCH
 5
E0B
 330
BF
 100
AcDbEntity
 62
8
 100
AcDbHatch
 10
0.0
 20
0.0
 210
0.0
 220
0.0
 230
1.0
 2
SOLID
 70
1
 71
1
 91
1
 92
1
 93
1
 72
2
 10
2433.585166
 20
2680.201488
 40
2.778125
 50
0.0
 51
360.0
 73
1
 97
1
 330
E0C
 75
0
 76
1
 98
0
 0
CIRCLE
 5
E0C
 102
{ACAD_REACTORS
 330
E0B
 102
}
 330
BF
 100
AcDbEntity
 100
AcDbCircle
 10
2433.585166
 20
2680.201488
 40
2.778125
 0
HATCH
 5
E0D
 330
BF
 100
AcDbEntity
 62
253
 100
AcDbHatch
 10
0.0
 20
0.0
 210
0.0
 220
0.0
 230
1.0
 2
SOLID
 70
1
 71
1
 91
1
 92
1
 93
1
 72
2
 10
2433.585166
 20
2704.013988
 40
7.937500
 50
0.0
 51
360.0
 73
1
 97
1
 330
E0E
 75
0
 76
1
 98
0
 0
CIRCLE
 5
E0E
 102
{ACAD_REACTORS
 330
E0D
 102
}
 330
BF
 100
AcDbEntity
 100
AcDbCircle
 10
2433.585166
 20
2704.013988
 40
7.937500
 0
HATCH
 5
E0F
 330
BF
 100
AcDbEntity
 62
8
 100
AcDbHatch
 10
0.0
 20
0.0
 210
0.0
 220
0.0
 230
1.0
 2
SOLID
 70
1
 71
1
 91
1
 92
1
 93
1
 72
2
 10
2433.585166
 20
2704.013988
 40
2.778125
 50
0.0
 51
360.0
 73
1
 97
1
 330
E10
 75
0
 76
1
 98
0
 0
CIRCLE
 5
E10
 102
{ACAD_REACTORS
 330
E0F
 102
}
 330
BF
 100
AcDbEntity
 100
AcDbCircle
 10
2433.585166
 20
2704.013988
 40
2.778125
 0
HATCH
 5
E11
 330
BF
 100
AcDbEntity
 62
253
 100
AcDbHatch
 10
0.0
 20
0.0
 210
0.0
 220
0.0
 230
1.0
 2
SOLID
 70
1
 71
1
 91
1
 92
1
 93
1
 72
2
 10
2457.397666
 20
2656.388988
 40
7.937500
 50
0.0
 51
360.0
 73
1
 97
1
 330
E12
 75
0
 76
1
 98
0
 0
CIRCLE
 5
E12
 102
{ACAD_REACTORS
 330
E11
 102
}
 330
BF
 100
AcDbEntity
 100
AcDbCircle
 10
2457.397666
 20
2656.388988
 40
7.937500
 0
HATCH
 5
E13
 330
BF
 100
AcDbEntity
 62
8
 100
AcDbHatch
 10
0.0
 20
0.0
 210
0.0
 220
0.0
 230
1.0
 2
SOLID
 70
1
 71
1
 91
1
 92
1
 93
1
 72
2
 10
2457.397666
 20
2656.388988
 40
2.778125
 50
0.0
 51
360.0
 73
1
 97
1
 330
E14
 75
0
 76
1
 98
0
 0
CIRCLE
 5
E14
 102
{ACAD_REACTORS
 330
E13
 102
}
 330
BF
 100
AcDbEntity
 100
AcDbCircle
 10
2457.397666
 20
2656.388988
 40
2.778125
 0
HATCH
 5
E15
 330
BF
 100
AcDbEntity
 62
253
 100
AcDbHatch
 10
0.0
 20
0.0
 210
0.0
 220
0.0
 230
1.0
 2
SOLID
 70
1
 71
1
 91
1
 92
1
 93
1
 72
2
 10
2457.397666
 20
2680.201488
 40
7.937500
 50
0.0
 51
360.0
 73
1
 97
1
 330
E16
 75
0
 76
1
 98
0
 0
CIRCLE
 5
E16
 102
{ACAD_REACTORS
 330
E15
 102
}
 330
BF
 100
AcDbEntity
 100
AcDbCircle
 10
2457.397666
 20
2680.201488
 40
7.937500
 0
HATCH
 5
E17
 330
BF
 100
AcDbEntity
 62
8
 100
AcDbHatch
 10
0.0
 20
0.0
 210
0.0
 220
0.0
 230
1.0
 2
SOLID
 70
1
 71
1
 91
1
 92
1
 93
1
 72
2
 10
2457.397666
 20
2680.201488
 40
2.778125
 50
0.0
 51
360.0
 73
1
 97
1
 330
E18
 75
0
 76
1
 98
0
 0
CIRCLE
 5
E18
 102
{ACAD_REACTORS
 330
E17
 102
}
 330
BF
 100
AcDbEntity
 100
AcDbCircle
 10
2457.397666
 20
2680.201488
 40
2.778125
 0
HATCH
 5
E19
 330
BF
 100
AcDbEntity
 62
253
 100
AcDbHatch
 10
0.0
 20
0.0
 210
0.0
 220
0.0
 230
1.0
 2
SOLID
 70
1
 71
1
 91
1
 92
1
 93
1
 72
2
 10
2457.397666
 20
2704.013988
 40
7.937500
 50
0.0
 51
360.0
 73
1
 97
1
 330
E1A
 75
0
 76
1
 98
0
 0
CIRCLE
 5
E1A
 102
{ACAD_REACTORS
 330
E19
 102
}
 330
BF
 100
AcDbEntity
 100
AcDbCircle
 10
2457.397666
 20
2704.013988
 40
7.937500
 0
HATCH
 5
E1B
 330
BF
 100
AcDbEntity
 62
8
 100
AcDbHatch
 10
0.0
 20
0.0
 210
0.0
 220
0.0
 230
1.0
 2
SOLID
 70
1
 71
1
 91
1
 92
1
 93
1
 72
2
 10
2457.397666
 20
2704.013988
 40
2.778125
 50
0.0
 51
360.0
 73
1
 97
1
 330
E1C
 75
0
 76
1
 98
0
 0
CIRCLE
 5
E1C
 102
{ACAD_REACTORS
 330
E1B
 102
}
 330
BF
 100
AcDbEntity
 100
AcDbCircle
 10
2457.397666
 20
2704.013988
 40
2.778125
 0
HATCH
 5
E1D
 330
BF
 100
AcDbEntity
 62
253
 100
AcDbHatch
 10
0.0
 20
0.0
 210
0.0
 220
0.0
 230
1.0
 2
SOLID
 70
1
 71
1
 91
1
 92
1
 93
1
 72
2
 10
2481.210166
 20
2656.388988
 40
7.937500
 50
0.0
 51
360.0
 73
1
 97
1
 330
E1E
 75
0
 76
1
 98
0
 0
CIRCLE
 5
E1E
 102
{ACAD_REACTORS
 330
E1D
 102
}
 330
BF
 100
AcDbEntity
 100
AcDbCircle
 10
2481.210166
 20
2656.388988
 40
7.937500
 0
HATCH
 5
E1F
 330
BF
 100
AcDbEntity
 62
8
 100
AcDbHatch
 10
0.0
 20
0.0
 210
0.0
 220
0.0
 230
1.0
 2
SOLID
 70
1
 71
1
 91
1
 92
1
 93
1
 72
2
 10
2481.210166
 20
2656.388988
 40
2.778125
 50
0.0
 51
360.0
 73
1
 97
1
 330
E20
 75
0
 76
1
 98
0
 0
CIRCLE
 5
E20
 102
{ACAD_REACTORS
 330
E1F
 102
}
 330
BF
 100
AcDbEntity
 100
AcDbCircle
 10
2481.210166
 20
2656.388988
 40
2.778125
 0
HATCH
 5
E21
 330
BF
 100
AcDbEntity
 62
253
 100
AcDbHatch
 10
0.0
 20
0.0
 210
0.0
 220
0.0
 230
1.0
 2
SOLID
 70
1
 71
1
 91
1
 92
1
 93
1
 72
2
 10
2481.210166
 20
2680.201488
 40
7.937500
 50
0.0
 51
360.0
 73
1
 97
1
 330
E22
 75
0
 76
1
 98
0
 0
CIRCLE
 5
E22
 102
{ACAD_REACTORS
 330
E21
 102
}
 330
BF
 100
AcDbEntity
 100
AcDbCircle
 10
2481.210166
 20
2680.201488
 40
7.937500
 0
HATCH
 5
E23
 330
BF
 100
AcDbEntity
 62
8
 100
AcDbHatch
 10
0.0
 20
0.0
 210
0.0
 220
0.0
 230
1.0
 2
SOLID
 70
1
 71
1
 91
1
 92
1
 93
1
 72
2
 10
2481.210166
 20
2680.201488
 40
2.778125
 50
0.0
 51
360.0
 73
1
 97
1
 330
E24
 75
0
 76
1
 98
0
 0
CIRCLE
 5
E24
 102
{ACAD_REACTORS
 330
E23
 102
}
 330
BF
 100
AcDbEntity
 100
AcDbCircle
 10
2481.210166
 20
2680.201488
 40
2.778125
 0
HATCH
 5
E25
 330
BF
 100
AcDbEntity
 62
253
 100
AcDbHatch
 10
0.0
 20
0.0
 210
0.0
 220
0.0
 230
1.0
 2
SOLID
 70
1
 71
1
 91
1
 92
1
 93
1
 72
2
 10
2481.210166
 20
2704.013988
 40
7.937500
 50
0.0
 51
360.0
 73
1
 97
1
 330
E26
 75
0
 76
1
 98
0
 0
CIRCLE
 5
E26
 102
{ACAD_REACTORS
 330
E25
 102
}
 330
BF
 100
AcDbEntity
 100
AcDbCircle
 10
2481.210166
 20
2704.013988
 40
7.937500
 0
HATCH
 5
E27
 330
BF
 100
AcDbEntity
 62
8
 100
AcDbHatch
 10
0.0
 20
0.0
 210
0.0
 220
0.0
 230
1.0
 2
SOLID
 70
1
 71
1
 91
1
 92
1
 93
1
 72
2
 10
2481.210166
 20
2704.013988
 40
2.778125
 50
0.0
 51
360.0
 73
1
 97
1
 330
E28
 75
0
 76
1
 98
0
 0
CIRCLE
 5
E28
 102
{ACAD_REACTORS
 330
E27
 102
}
 330
BF
 100
AcDbEntity
 100
AcDbCircle
 10
2481.210166
 20
2704.013988
 40
2.778125
 0
HATCH
 5
E29
 330
BF
 100
AcDbEntity
 62
253
 100
AcDbHatch
 10
0.0
 20
0.0
 210
0.0
 220
0.0
 230
1.0
 2
SOLID
 70
1
 71
1
 91
1
 92
1
 93
1
 72
2
 10
2505.022666
 20
2656.388988
 40
7.937500
 50
0.0
 51
360.0
 73
1
 97
1
 330
E2A
 75
0
 76
1
 98
0
 0
CIRCLE
 5
E2A
 102
{ACAD_REACTORS
 330
E29
 102
}
 330
BF
 100
AcDbEntity
 100
AcDbCircle
 10
2505.022666
 20
2656.388988
 40
7.937500
 0
HATCH
 5
E2B
 330
BF
 100
AcDbEntity
 62
8
 100
AcDbHatch
 10
0.0
 20
0.0
 210
0.0
 220
0.0
 230
1.0
 2
SOLID
 70
1
 71
1
 91
1
 92
1
 93
1
 72
2
 10
2505.022666
 20
2656.388988
 40
2.778125
 50
0.0
 51
360.0
 73
1
 97
1
 330
E2C
 75
0
 76
1
 98
0
 0
CIRCLE
 5
E2C
 102
{ACAD_REACTORS
 330
E2B
 102
}
 330
BF
 100
AcDbEntity
 100
AcDbCircle
 10
2505.022666
 20
2656.388988
 40
2.778125
 0
HATCH
 5
E2D
 330
BF
 100
AcDbEntity
 62
253
 100
AcDbHatch
 10
0.0
 20
0.0
 210
0.0
 220
0.0
 230
1.0
 2
SOLID
 70
1
 71
1
 91
1
 92
1
 93
1
 72
2
 10
2505.022666
 20
2680.201488
 40
7.937500
 50
0.0
 51
360.0
 73
1
 97
1
 330
E2E
 75
0
 76
1
 98
0
 0
CIRCLE
 5
E2E
 102
{ACAD_REACTORS
 330
E2D
 102
}
 330
BF
 100
AcDbEntity
 100
AcDbCircle
 10
2505.022666
 20
2680.201488
 40
7.937500
 0
HATCH
 5
E2F
 330
BF
 100
AcDbEntity
 62
8
 100
AcDbHatch
 10
0.0
 20
0.0
 210
0.0
 220
0.0
 230
1.0
 2
SOLID
 70
1
 71
1
 91
1
 92
1
 93
1
 72
2
 10
2505.022666
 20
2680.201488
 40
2.778125
 50
0.0
 51
360.0
 73
1
 97
1
 330
E30
 75
0
 76
1
 98
0
 0
CIRCLE
 5
E30
 102
{ACAD_REACTORS
 330
E2F
 102
}
 330
BF
 100
AcDbEntity
 100
AcDbCircle
 10
2505.022666
 20
2680.201488
 40
2.778125
 0
HATCH
 5
E31
 330
BF
 100
AcDbEntity
 62
253
 100
AcDbHatch
 10
0.0
 20
0.0
 210
0.0
 220
0.0
 230
1.0
 2
SOLID
 70
1
 71
1
 91
1
 92
1
 93
1
 72
2
 10
2505.022666
 20
2704.013988
 40
7.937500
 50
0.0
 51
360.0
 73
1
 97
1
 330
E32
 75
0
 76
1
 98
0
 0
CIRCLE
 5
E32
 102
{ACAD_REACTORS
 330
E31
 102
}
 330
BF
 100
AcDbEntity
 100
AcDbCircle
 10
2505.022666
 20
2704.013988
 40
7.937500
 0
HATCH
 5
E33
 330
BF
 100
AcDbEntity
 62
8
 100
AcDbHatch
 10
0.0
 20
0.0
 210
0.0
 220
0.0
 230
1.0
 2
SOLID
 70
1
 71
1
 91
1
 92
1
 93
1
 72
2
 10
2505.022666
 20
2704.013988
 40
2.778125
 50
0.0
 51
360.0
 73
1
 97
1
 330
E34
 75
0
 76
1
 98
0
 0
CIRCLE
 5
E34
 102
{ACAD_REACTORS
 330
E33
 102
}
 330
BF
 100
AcDbEntity
 100
AcDbCircle
 10
2505.022666
 20
2704.013988
 40
2.778125
 0
TEXT
 5
E35
 330
BF
 100
AcDbEntity
 100
AcDbText
 10
2835.613379
 20
3038.996737
 11
2943.160203
 21
3038.996737
 40
34.457469
 1
Unit
 72
5
 7
Verdana
 100
AcDbText
 0
TEXT
 5
E36
 330
BF
 100
AcDbEntity
 100
AcDbText
 10
2835.613379
 20
2970.081798
 11
3096.798524
 21
2970.081798
 40
34.457469
 1
TEMA type
 72
5
 7
Verdana
 100
AcDbText
 0
TEXT
 5
E37
 330
BF
 100
AcDbEntity
 100
AcDbText
 10
2835.613379
 20
2901.166860
 11
3035.343196
 21
2901.166860
 40
34.457469
 1
Shell ID
 72
5
 7
Verdana
 100
AcDbText
 0
TEXT
 5
E38
 330
BF
 100
AcDbEntity
 100
AcDbText
 10
2835.613379
 20
2832.251922
 11
3112.162357
 21
2832.251922
 40
34.457469
 1
Actual OTL
 72
5
 7
Verdana
 100
AcDbText
 0
TEXT
 5
E39
 330
BF
 100
AcDbEntity
 100
AcDbText
 10
2835.613379
 20
2763.336984
 11
3496.258159
 21
2763.336984
 40
34.457469
 1
Height under inlet nozzle
 72
5
 7
Verdana
 100
AcDbText
 0
TEXT
 5
E3A
 330
BF
 100
AcDbEntity
 100
AcDbText
 10
2835.613379
 20
2694.422046
 11
3542.349656
 21
2694.422046
 40
34.457469
 1
Height under outlet nozzle
 72
5
 7
Verdana
 100
AcDbText
 0
TEXT
 5
E3B
 330
BF
 100
AcDbEntity
 100
AcDbText
 10
2835.613379
 20
2625.507107
 11
3096.798524
 21
2625.507107
 40
34.457469
 1
Tube type
 72
5
 7
Verdana
 100
AcDbText
 0
TEXT
 5
E3C
 330
BF
 100
AcDbEntity
 100
AcDbText
 10
2835.613379
 20
2556.592169
 11
3035.343196
 21
2556.592169
 40
34.457469
 1
Tube OD
 72
5
 7
Verdana
 100
AcDbText
 0
TEXT
 5
E3D
 330
BF
 100
AcDbEntity
 100
AcDbText
 10
2835.613379
 20
2487.677231
 11
3112.162357
 21
2487.677231
 40
34.457469
 1
Tube pitch
 72
5
 7
Verdana
 100
AcDbText
 0
TEXT
 5
E3E
 330
BF
 100
AcDbEntity
 100
AcDbText
 10
2835.613379
 20
2418.762293
 11
3296.528342
 21
2418.762293
 40
34.457469
 1
Tube layout angle
 72
5
 7
Verdana
 100
AcDbText
 0
TEXT
 5
E3F
 330
BF
 100
AcDbEntity
 100
AcDbText
 10
2835.613379
 20
2349.847354
 11
3004.615532
 21
2349.847354
 40
34.457469
 1
Tubes 
 72
5
 7
Verdana
 100
AcDbText
 0
TEXT
 5
E40
 330
BF
 100
AcDbEntity
 100
AcDbText
 10
2835.613379
 20
2280.932416
 11
3465.530495
 21
2280.932416
 40
34.457469
 1
Tube positions available
 72
5
 7
Verdana
 100
AcDbText
 0
TEXT
 5
E41
 330
BF
 100
AcDbEntity
 100
AcDbText
 10
2835.613379
 20
2212.017478
 11
3050.707028
 21
2212.017478
 40
34.457469
 1
Tie rods
 72
5
 7
Verdana
 100
AcDbText
 0
TEXT
 5
E42
 330
BF
 100
AcDbEntity
 100
AcDbText
 10
2835.613379
 20
2143.102540
 11
3250.436846
 21
2143.102540
 40
34.457469
 1
Seal strip pairs
 72
5
 7
Verdana
 100
AcDbText
 0
TEXT
 5
E43
 330
BF
 100
AcDbEntity
 100
AcDbText
 10
2835.613379
 20
2074.187601
 11
3158.253853
 21
2074.187601
 40
34.457469
 1
Tube Passes
 72
5
 7
Verdana
 100
AcDbText
 0
TEXT
 5
E44
 330
BF
 100
AcDbEntity
 100
AcDbText
 10
3799.879099
 20
3038.996737
 11
3968.881252
 21
3038.996737
 40
34.457469
 1
Shell 1
 72
5
 7
Verdana
 100
AcDbText
 0
TEXT
 5
E45
 330
BF
 100
AcDbEntity
 100
AcDbText
 10
3876.698259
 20
2970.081798
 11
3968.881252
 21
2970.081798
 40
34.457469
 1
NXN
 72
5
 7
Verdana
 100
AcDbText
 0
TEXT
 5
E46
 330
BF
 100
AcDbEntity
 100
AcDbText
 10
3738.423770
 20
2901.166860
 11
3968.881252
 21
2901.166860
 40
34.457469
 1
2025.000
 72
5
 7
Verdana
 100
AcDbText
 0
TEXT
 5
E47
 330
BF
 100
AcDbEntity
 100
AcDbText
 10
3738.423770
 20
2832.251922
 11
3968.881252
 21
2832.251922
 40
34.457469
 1
1710.647
 72
5
 7
Verdana
 100
AcDbText
 0
TEXT
 5
E48
 330
BF
 100
AcDbEntity
 100
AcDbText
 10
3769.151434
 20
2763.336984
 11
3968.881252
 21
2763.336984
 40
34.457469
 1
180.650
 72
5
 7
Verdana
 100
AcDbText
 0
TEXT
 5
E49
 330
BF
 100
AcDbEntity
 100
AcDbText
 10
3769.151434
 20
2694.422046
 11
3968.881252
 21
2694.422046
 40
34.457469
 1
180.650
 72
5
 7
Verdana
 100
AcDbText
 0
TEXT
 5
E4A
 330
BF
 100
AcDbEntity
 100
AcDbText
 10
3845.970595
 20
2625.507107
 11
3968.881252
 21
2625.507107
 40
34.457469
 1
Plain
 72
5
 7
Verdana
 100
AcDbText
 0
TEXT
 5
E4B
 330
BF
 100
AcDbEntity
 100
AcDbText
 10
3799.879099
 20
2556.592169
 11
3968.881252
 21
2556.592169
 40
34.457469
 1
38.100
 72
5
 7
Verdana
 100
AcDbText
 0
TEXT
 5
E4C
 330
BF
 100
AcDbEntity
 100
AcDbText
 10
3799.879099
 20
2487.677231
 11
3968.881252
 21
2487.677231
 40
34.457469
 1
50.800
 72
5
 7
Verdana
 100
AcDbText
 0
TEXT
 5
E4D
 330
BF
 100
AcDbEntity
 100
AcDbText
 10
3907.425923
 20
2418.762293
 11
3968.881252
 21
2418.762293
 40
34.457469
 1
60
 72
5
 7
Verdana
 100
AcDbText
 0
TEXT
 5
E4E
 330
BF
 100
AcDbEntity
 100
AcDbText
 10
3876.698259
 20
2349.847354
 11
3968.881252
 21
2349.847354
 40
34.457469
 1
848
 72
5
 7
Verdana
 100
AcDbText
 0
TEXT
 5
E4F
 330
BF
 100
AcDbEntity
 100
AcDbText
 10
3876.698259
 20
2280.932416
 11
3968.881252
 21
2280.932416
 40
34.457469
 1
848
 72
5
 7
Verdana
 100
AcDbText
 0
TEXT
 5
E50
 330
BF
 100
AcDbEntity
 100
AcDbText
 10
3907.425923
 20
2212.017478
 11
3968.881252
 21
2212.017478
 40
34.457469
 1
12
 72
5
 7
Verdana
 100
AcDbText
 0
TEXT
 5
E51
 330
BF
 100
AcDbEntity
 100
AcDbText
 10
3938.153588
 20
2143.102540
 11
3968.881252
 21
2143.102540
 40
34.457469
 1
6
 72
5
 7
Verdana
 100
AcDbText
 0
TEXT
 5
E52
 330
BF
 100
AcDbEntity
 100
AcDbText
 10
3938.153588
 20
2074.187601
 11
3968.881252
 21
2074.187601
 40
34.457469
 1
1
 72
5
 7
Verdana
 100
AcDbText
 0
TEXT
 5
E53
 330
BF
 100
AcDbEntity
 100
AcDbText
 10
3968.881252
 20
2901.166860
 11
4091.791909
 21
2901.166860
 40
34.457469
 1
 mm   
 72
5
 7
Verdana
 100
AcDbText
 0
TEXT
 5
E54
 330
BF
 100
AcDbEntity
 100
AcDbText
 10
3968.881252
 20
2832.251922
 11
4091.791909
 21
2832.251922
 40
34.457469
 1
 mm   
 72
5
 7
Verdana
 100
AcDbText
 0
TEXT
 5
E55
 330
BF
 100
AcDbEntity
 100
AcDbText
 10
3968.881252
 20
2763.336984
 11
4091.791909
 21
2763.336984
 40
34.457469
 1
 mm   
 72
5
 7
Verdana
 100
AcDbText
 0
TEXT
 5
E56
 330
BF
 100
AcDbEntity
 100
AcDbText
 10
3968.881252
 20
2694.422046
 11
4091.791909
 21
2694.422046
 40
34.457469
 1
 mm   
 72
5
 7
Verdana
 100
AcDbText
 0
TEXT
 5
E57
 330
BF
 100
AcDbEntity
 100
AcDbText
 10
3968.881252
 20
2556.592169
 11
4091.791909
 21
2556.592169
 40
34.457469
 1
 mm   
 72
5
 7
Verdana
 100
AcDbText
 0
TEXT
 5
E58
 330
BF
 100
AcDbEntity
 100
AcDbText
 10
3968.881252
 20
2487.677231
 11
4091.791909
 21
2487.677231
 40
34.457469
 1
 mm   
 72
5
 7
Verdana
 100
AcDbText
 0
TEXT
 5
E59
 330
BF
 100
AcDbEntity
 100
AcDbText
 10
3968.881252
 20
2418.762293
 11
4076.428077
 21
2418.762293
 40
34.457469
 1
 deg
 72
5
 7
Verdana
 100
AcDbText
 0
TEXT
 5
E5A
 330
BF
 100
AcDbEntity
 100
AcDbText
 10
2835.613379
 20
1936.357725
 11
3311.892174
 21
1936.357725
 40
34.457469
 1
TUBEPASS DETAILS
 72
5
 7
Verdana
 100
AcDbText
 0
TEXT
 5
E5B
 330
BF
 100
AcDbEntity
 100
AcDbText
 10
2835.613379
 20
1867.442787
 11
2958.524036
 21
1867.442787
 40
34.457469
 1
Pass
 72
5
 7
Verdana
 100
AcDbText
 0
TEXT
 5
E5C
 330
BF
 100
AcDbEntity
 100
AcDbText
 10
2835.613379
 20
1798.527849
 11
2866.341043
 21
1798.527849
 40
34.457469
 1
1
 72
5
 7
Verdana
 100
AcDbText
 0
TEXT
 5
E5D
 330
BF
 100
AcDbEntity
 100
AcDbText
 10
3089.207811
 20
1867.442787
 11
3212.118468
 21
1867.442787
 40
34.457469
 1
Rows
 72
5
 7
Verdana
 100
AcDbText
 0
TEXT
 5
E5E
 330
BF
 100
AcDbEntity
 100
AcDbText
 10
3150.663139
 20
1798.527849
 11
3212.118468
 21
1798.527849
 40
34.457469
 1
65
 72
5
 7
Verdana
 100
AcDbText
 0
TEXT
 5
E5F
 330
BF
 100
AcDbEntity
 100
AcDbText
 10
3308.199420
 20
1867.442787
 11
3461.837741
 21
1867.442787
 40
34.457469
 1
Tubes
 72
5
 7
Verdana
 100
AcDbText
 0
TEXT
 5
E60
 330
BF
 100
AcDbEntity
 100
AcDbText
 10
3369.654749
 20
1798.527849
 11
3461.837741
 21
1798.527849
 40
34.457469
 1
848
 72
5
 7
Verdana
 100
AcDbText
 0
TEXT
 5
E61
 330
BF
 100
AcDbEntity
 100
AcDbText
 10
2950.842119
 20
1591.783034
 11
3073.752776
 21
1591.783034
 40
34.457469
 1
Tube
 72
5
 7
Verdana
 100
AcDbText
 0
TEXT
 5
E62
 330
BF
 100
AcDbEntity
 100
AcDbText
 10
2950.842119
 20
1522.868096
 11
3411.757083
 21
1522.868096
 40
34.457469
 1
Dummy Short Tube
 72
5
 7
Verdana
 100
AcDbText
 0
TEXT
 5
E63
 330
BF
 100
AcDbEntity
 100
AcDbText
 10
2950.842119
 20
1453.953157
 11
3381.029418
 21
1453.953157
 40
34.457469
 1
Dummy Long Tube
 72
5
 7
Verdana
 100
AcDbText
 0
TEXT
 5
E64
 330
BF
 100
AcDbEntity
 100
AcDbText
 10
2950.842119
 20
1385.038219
 11
3288.846426
 21
1385.038219
 40
34.457469
 1
Plugged Tube
 72
5
 7
Verdana
 100
AcDbText
 0
TEXT
 5
E65
 330
BF
 100
AcDbEntity
 100
AcDbText
 10
2950.842119
 20
1316.123281
 11
3135.208105
 21
1316.123281
 40
34.457469
 1
Tie Rod
 72
5
 7
Verdana
 100
AcDbText
 0
TEXT
 5
E66
 330
BF
 100
AcDbEntity
 100
AcDbText
 10
2950.842119
 20
1247.208343
 11
3165.935769
 21
1247.208343
 40
34.457469
 1
Seal Rod
 72
5
 7
Verdana
 100
AcDbText
 0
TEXT
 5
E67
 330
BF
 100
AcDbEntity
 100
AcDbText
 10
2950.842119
 20
1178.293404
 11
3381.029418
 21
1178.293404
 40
34.457469
 1
Impingement Rod
 72
5
 7
Verdana
 100
AcDbText
 0
TEXT
 5
E68
 330
BF
 100
AcDbEntity
 100
AcDbText
 10
2835.613379
 20
1660.697972
 11
3219.709181
 21
1660.697972
 40
34.457469
 1
SYMBOL LEGEND
 72
5
 7
Verdana
 100
AcDbText
 0
CIRCLE
 5
E69
 330
BF
 100
AcDbEntity
 100
AcDbCircle
 10
2881.556671
 20
1609.011768
 40
22.971646
 0
HATCH
 5
E6A
 330
BF
 100
AcDbEntity
 62
4
 100
AcDbHatch
 10
0.0
 20
0.0
 210
0.0
 220
0.0
 230
1.0
 2
SOLID
 70
1
 71
1
 91
1
 92
1
 93
1
 72
2
 10
2881.556671
 20
1540.096830
 40
22.971646
 50
0.0
 51
360.0
 73
1
 97
1
 330
E6B
 75
0
 76
1
 98
0
 0
CIRCLE
 5
E6B
 102
{ACAD_REACTORS
 330
E6A
 102
}
 330
BF
 100
AcDbEntity
 62
4
 100
AcDbCircle
 10
2881.556671
 20
1540.096830
 40
22.971646
 0
HATCH
 5
E6C
 330
BF
 100
AcDbEntity
 62
253
 100
AcDbHatch
 10
0.0
 20
0.0
 210
0.0
 220
0.0
 230
1.0
 2
SOLID
 70
1
 71
1
 91
1
 92
7
 72
0
 73
1
 93
3
 10
2881.556671
 20
1561.919894
 10
2866.242240
 20
1527.679724
 10
2896.871102
 20
1527.679724
 97
1
 330
E6D
 75
0
 76
1
 47
0.0
 98
0
 0
LWPOLYLINE
 5
E6D
 102
{ACAD_REACTORS
 330
E6C
 102
}
 330
BF
 100
AcDbEntity
 100
AcDbPolyline
 90
3
 70
1
 10
2881.556671
 20
1561.919894
 10
2866.242240
 20
1527.679724
 10
2896.871102
 20
1527.679724
 0
HATCH
 5
E6E
 330
BF
 100
AcDbEntity
 62
40
 100
AcDbHatch
 10
0.0
 20
0.0
 210
0.0
 220
0.0
 230
1.0
 2
SOLID
 70
1
 71
1
 91
1
 92
1
 93
1
 72
2
 10
2881.556671
 20
1471.181892
 40
22.971646
 50
0.0
 51
360.0
 73
1
 97
1
 330
E6F
 75
0
 76
1
 98
0
 0
CIRCLE
 5
E6F
 102
{ACAD_REACTORS
 330
E6E
 102
}
 330
BF
 100
AcDbEntity
 62
40
 100
AcDbCircle
 10
2881.556671
 20
1471.181892
 40
22.971646
 0
LWPOLYLINE
 5
E70
 330
BF
 100
AcDbEntity
 100
AcDbPolyline
 90
3
 70
1
 10
2881.556671
 20
1493.004956
 10
2866.242240
 20
1458.764786
 10
2896.871102
 20
1458.764786
 0
HATCH
 5
E71
 330
BF
 100
AcDbEntity
 62
253
 100
AcDbHatch
 10
0.0
 20
0.0
 210
0.0
 220
0.0
 230
1.0
 2
SOLID
 70
1
 71
1
 91
1
 92
1
 93
1
 72
2
 10
2881.556671
 20
1402.266954
 40
22.971646
 50
0.0
 51
360.0
 73
1
 97
1
 330
E72
 75
0
 76
1
 98
0
 0
CIRCLE
 5
E72
 102
{ACAD_REACTORS
 330
E71
 102
}
 330
BF
 100
AcDbEntity
 100
AcDbCircle
 10
2881.556671
 20
1402.266954
 40
22.971646
 0
HATCH
 5
E73
 330
BF
 100
AcDbEntity
 62
253
 100
AcDbHatch
 10
0.0
 20
0.0
 210
0.0
 220
0.0
 230
1.0
 2
SOLID
 70
1
 71
1
 91
1
 92
1
 93
1
 72
2
 10
2881.556671
 20
1333.352015
 40
22.971646
 50
0.0
 51
360.0
 73
1
 97
1
 330
E74
 75
0
 76
1
 98
0
 0
CIRCLE
 5
E74
 102
{ACAD_REACTORS
 330
E73
 102
}
 330
BF
 100
AcDbEntity
 100
AcDbCircle
 10
2881.556671
 20
1333.352015
 40
22.971646
 0
HATCH
 5
E75
 330
BF
 100
AcDbEntity
 62
8
 100
AcDbHatch
 10
0.0
 20
0.0
 210
0.0
 220
0.0
 230
1.0
 2
SOLID
 70
1
 71
1
 91
1
 92
1
 93
1
 72
2
 10
2881.556671
 20
1333.352015
 40
8.040076
 50
0.0
 51
360.0
 73
1
 97
1
 330
E76
 75
0
 76
1
 98
0
 0
CIRCLE
 5
E76
 102
{ACAD_REACTORS
 330
E75
 102
}
 330
BF
 100
AcDbEntity
 100
AcDbCircle
 10
2881.556671
 20
1333.352015
 40
8.040076
 0
HATCH
 5
E77
 330
BF
 100
AcDbEntity
 62
1
 100
AcDbHatch
 10
0.0
 20
0.0
 210
0.0
 220
0.0
 230
1.0
 2
SOLID
 70
1
 71
1
 91
1
 92
1
 93
1
 72
2
 10
2881.556671
 20
1264.437077
 40
22.971646
 50
0.0
 51
360.0
 73
1
 97
1
 330
E78
 75
0
 76
1
 98
0
 0
CIRCLE
 5
E78
 102
{ACAD_REACTORS
 330
E77
 102
}
 330
BF
 100
AcDbEntity
 62
1
 100
AcDbCircle
 10
2881.556671
 20
1264.437077
 40
22.971646
 0
HATCH
 5
E79
 330
BF
 100
AcDbEntity
 62
253
 100
AcDbHatch
 10
0.0
 20
0.0
 210
0.0
 220
0.0
 230
1.0
 2
SOLID
 70
1
 71
1
 91
1
 92
7
 72
0
 73
1
 93
10
 10
2881.556671
 20
1287.408723
 10
2886.714138
 20
1271.535729
 10
2903.403997
 20
1271.535729
 10
2889.901638
 20
1261.725648
 10
2895.059105
 20
1245.852654
 10
2881.556694
 20
1255.662664
 10
2868.054335
 20
1245.852582
 10
2873.211718
 20
1261.725603
 10
2859.709307
 20
1271.535613
 10
2876.399166
 20
1271.535702
 97
1
 330
E7A
 75
0
 76
1
 47
0.0
 98
0
 0
LWPOLYLINE
 5
E7A
 102
{ACAD_REACTORS
 330
E79
 102
}
 330
BF
 100
AcDbEntity
 100
AcDbPolyline
 90
10
 70
1
 10
2881.556671
 20
1287.408723
 10
2886.714138
 20
1271.535729
 10
2903.403997
 20
1271.535729
 10
2889.901638
 20
1261.725648
 10
2895.059105
 20
1245.852654
 10
2881.556694
 20
1255.662664
 10
2868.054335
 20
1245.852582
 10
2873.211718
 20
1261.725603
 10
2859.709307
 20
1271.535613
 10
2876.399166
 20
1271.535702
 0
HATCH
 5
E7B
 330
BF
 100
AcDbEntity
 62
1
 100
AcDbHatch
 10
0.0
 20
0.0
 210
0.0
 220
0.0
 230
1.0
 2
SOLID
 70
1
 71
1
 91
1
 92
1
 93
1
 72
2
 10
2881.556671
 20
1195.522139
 40
22.971646
 50
0.0
 51
360.0
 73
1
 97
1
 330
E7C
 75
0
 76
1
 98
0
 0
CIRCLE
 5
E7C
 102
{ACAD_REACTORS
 330
E7B
 102
}
 330
BF
 100
AcDbEntity
 100
AcDbCircle
 10
2881.556671
 20
1195.522139
 40
22.971646
 0
LWPOLYLINE
 5
E7D
 330
BF
 100
AcDbEntity
 100
AcDbPolyline
 90
2
 70
0
 10
2897.800078
 20
1211.765546
 10
2865.313264
 20
1179.278732
 0
LWPOLYLINE
 5
E7E
 330
BF
 100
AcDbEntity
 100
AcDbPolyline
 90
2
 70
0
 10
2897.800078
 20
1179.278732
 10
2865.313264
 20
1211.765546
 0
ELLIPSE
 5
E7F
 330
BF
 100
AcDbEntity
 100
AcDbEllipse
 10
329.143083
 20
564.215862
 11
0.000000
 21
68.682671
 40
1.000000
 0
ELLIPSE
 5
E80
 330
BF
 100
AcDbEntity
 100
AcDbEllipse
 10
170.527209
 20
472.638968
 11
0.000000
 21
68.682671
 40
1.000000
 0
ELLIPSE
 5
E81
 330
BF
 100
AcDbEntity
 100
AcDbEllipse
 10
329.143083
 20
381.062074
 11
0.000000
 21
68.682671
 40
1.000000
 0
LWPOLYLINE
 5
E82
 330
BF
 100
AcDbEntity
 100
AcDbPolyline
 90
6
 70
0
 10
528.649524
 20
472.638968
 10
528.649790
 20
539.329912
 10
516.206815
 20
539.329962
 10
528.649889
 20
564.215862
 10
541.092765
 20
539.329863
 10
528.649790
 20
539.329912
 0
LWPOLYLINE
 5
E83
 330
BF
 100
AcDbEntity
 100
AcDbPolyline
 90
6
 70
0
 10
528.649524
 20
472.638968
 10
528.649259
 20
405.948024
 10
541.092234
 20
405.947974
 10
528.649160
 20
381.062074
 10
516.206284
 20
405.948073
 10
528.649259
 20
405.948024
 0
LWPOLYLINE
 5
E84
 330
BF
 100
AcDbEntity
 6
DOTTED
 100
AcDbPolyline
 90
2
 70
0
 10
528.649889
 20
564.215862
 10
329.143083
 20
564.215862
 0
LWPOLYLINE
 5
E85
 330
BF
 100
AcDbEntity
 6
DOTTED
 100
AcDbPolyline
 90
2
 70
0
 10
528.649160
 20
381.062074
 10
329.143083
 20
381.062074
 0
LWPOLYLINE
 5
E86
 330
BF
 100
AcDbEntity
 100
AcDbPolyline
 90
2
 70
0
 10
554.492991
 20
564.215760
 10
502.806787
 20
564.215965
 0
LWPOLYLINE
 5
E87
 330
BF
 100
AcDbEntity
 100
AcDbPolyline
 90
2
 70
0
 10
554.492262
 20
381.061971
 10
502.806058
 20
381.062176
 0
TEXT
 5
E88
 330
BF
 100
AcDbEntity
 100
AcDbText
 10
444.367931
 20
345.620003
 11
612.931118
 21
345.620003
 40
23.627979
 1
P 50.8000
 72
5
 7
Verdana
 100
AcDbText
 0
TEXT
 5
E89
 330
BF
 100
AcDbEntity
 100
AcDbText
 10
507.579126
 20
298.364045
 11
549.719923
 21
298.364045
 40
23.627979
 1
mm
 72
5
 7
Verdana
 100
AcDbText
 0
LWPOLYLINE
 5
E8A
 330
BF
 100
AcDbEntity
 100
AcDbPolyline
 90
6
 70
0
 10
249.835146
 20
286.214576
 10
195.413159
 20
286.214576
 10
195.413159
 20
273.771601
 10
170.527209
 20
286.214576
 10
195.413159
 20
298.657551
 10
195.413159
 20
286.214576
 0
LWPOLYLINE
 5
E8B
 330
BF
 100
AcDbEntity
 100
AcDbPolyline
 90
6
 70
0
 10
249.835146
 20
286.214576
 10
304.257133
 20
286.214576
 10
304.257133
 20
298.657551
 10
329.143083
 20
286.214576
 10
304.257133
 20
273.771601
 10
304.257133
 20
286.214576
 0
LWPOLYLINE
 5
E8C
 330
BF
 100
AcDbEntity
 6
DOTTED
 100
AcDbPolyline
 90
2
 70
0
 10
170.527209
 20
286.214576
 10
170.527209
 20
472.638968
 0
LWPOLYLINE
 5
E8D
 330
BF
 100
AcDbEntity
 6
DOTTED
 100
AcDbPolyline
 90
2
 70
0
 10
329.143083
 20
286.214576
 10
329.143083
 20
381.062074
 0
LWPOLYLINE
 5
E8E
 330
BF
 100
AcDbEntity
 100
AcDbPolyline
 90
2
 70
0
 10
170.527209
 20
312.057678
 10
170.527209
 20
260.371474
 0
LWPOLYLINE
 5
E8F
 330
BF
 100
AcDbEntity
 100
AcDbPolyline
 90
2
 70
0
 10
329.143083
 20
312.057678
 10
329.143083
 20
260.371474
 0
TEXT
 5
E90
 330
BF
 100
AcDbEntity
 100
AcDbText
 10
181.356352
 20
224.929506
 11
318.313941
 21
224.929506
 40
23.627979
 1
43.9941
 72
5
 7
Verdana
 100
AcDbText
 0
TEXT
 5
E91
 330
BF
 100
AcDbEntity
 100
AcDbText
 10
228.764748
 20
177.673548
 11
270.905544
 21
177.673548
 40
23.627979
 1
mm
 72
5
 7
Verdana
 100
AcDbText
 0
ENDSEC
 0
SECTION
 2
OBJECTS
 0
DICTIONARY
 5
E92
 100
AcDbDictionary
 281
1
 3
ACAD_GROUP
 350
E93
 3
ACAD_LAYOUT
 350
E94
 3
ACAD_MLINESTYLE
 350
E95
 0
DICTIONARY
 5
E93
 102
{ACAD_REACTORS
 330
E92
 102
}
 330
E92
 100
AcDbDictionary
 281
1
 0
DICTIONARY
 5
E94
 102
{ACAD_REACTORS
 330
E92
 102
}
 330
E92
 100
AcDbDictionary
 281
1
 3
Layout1
 350
C2
 3
Model
 350
C0
 0
LAYOUT
 5
C2
 102
{ACAD_XDICTIONARY
 102
}
 102
{ACAD_REACTORS
 330
E94
 102
}
 330
E94
 100
AcDbPlotSettings
 70
214
 74
1
 75
0
 100
AcDbLayout
 1
Layout1
 70
1
 330
C1
 0
LAYOUT
 5
C0
 102
{ACAD_XDICTIONARY
 102
}
 102
{ACAD_REACTORS
 330
E94
 102
}
 330
E94
 100
AcDbPlotSettings
 70
1238
 74
1
 75
0
 100
AcDbLayout
 1
Model
 70
1
 330
BF
 0
DICTIONARY
 5
E95
 102
{ACAD_REACTORS
 330
E92
 102
}
 100
AcDbDictionary
 3
STANDARD
 350
E96
 0
MLINESTYLE
 5
E96
 102
{ACAD_REACTORS
 330
E95
 102
}
 100
AcDbMlineStyle
 2
STANDARD
 70
0
 3

 62
256
 51
90.0
 52
90.0
 71
2
 49
0.5
 62
256
 6
BYLAYER
 49
-0.5
 62
256
 6
BYLAYER
 0
ENDSEC
 0
EOF
